<?xml version="1.0" encoding="UTF-8"?>
<svg id="Camada_2" data-name="Camada 2" xmlns="http://www.w3.org/2000/svg" viewBox="0 0 370.85 13.4">
  <defs>
    <style>
      .cls-1 {
        fill: #fff;
        stroke-width: 0px;
      }
    </style>
  </defs>
  <g id="TEXTS">
    <path class="cls-1" d="M365.18,12.37c3.13,0,5.67-2.54,5.67-5.67,0-3.13-2.54-5.67-5.67-5.67-1.89,0-3.56.92-4.59,2.34H12.22C11.47,1,8.95-.51,6.38.16L1.94,1.31C.8,1.61,0,2.65,0,3.83v.03s7.63,0,7.63,0c1.1,1.73,1.1,3.95,0,5.69H0s0,.03,0,.03c0,1.18.8,2.22,1.94,2.52l4.44,1.15c2.57.67,5.09-.84,5.84-3.21h348.37c1.03,1.42,2.7,2.34,4.59,2.34Z"/>
  </g>
</svg>