<?xml version="1.0" encoding="utf-8"?>
<!-- Generator: Adobe Illustrator 28.1.0, SVG Export Plug-In . SVG Version: 6.00 Build 0)  -->
<svg version="1.1" id="Camada_1" xmlns="http://www.w3.org/2000/svg" xmlns:xlink="http://www.w3.org/1999/xlink" x="0px" y="0px"
	 viewBox="0 0 491.37 491.37" style="enable-background:new 0 0 491.37 491.37;" xml:space="preserve">
<style type="text/css">
	.st0{fill:url(#SVGID_1_);}
	.st1{fill:#FFFFFF;}
</style>
<g>
	<radialGradient id="SVGID_1_" cx="245.6862" cy="245.6862" r="245.6862" gradientUnits="userSpaceOnUse">
		<stop  offset="0" style="stop-color:#004C95"/>
		<stop  offset="1" style="stop-color:#1F305A"/>
	</radialGradient>
	<circle class="st0" cx="245.69" cy="245.69" r="245.69"/>
	<path class="st1" d="M314.61,230.28l-3.31,26.58c-0.56,4.44-4.32,7.78-8.78,7.78h-43.05v111.13c-4.54,0.41-9.14,0.62-13.79,0.62
		c-10.4,0-20.55-1.04-30.36-3.02V264.63h-33.11c-3.04,0-5.52-2.49-5.52-5.54v-33.26c0-3.05,2.48-5.54,5.52-5.54h33.11v-49.88
		c0-30.61,24.71-55.42,55.2-55.42h38.63c3.04,0,5.52,2.49,5.52,5.54v33.26c0,3.05-2.48,5.54-5.52,5.54h-27.6
		c-12.19,0-22.07,9.92-22.07,22.17v38.8h46.36C311.16,220.3,315.27,224.98,314.61,230.28z"/>
</g>
</svg>
