<?xml version="1.0" encoding="UTF-8"?>
<svg id="Camada_2" data-name="Camada 2" xmlns="http://www.w3.org/2000/svg" xmlns:xlink="http://www.w3.org/1999/xlink" viewBox="0 0 491.37 491.37">
  <defs>
    <style>
      .cls-1 {
        fill: #1c2e5b;
      }

      .cls-1, .cls-2 {
        stroke-width: 0px;
      }

      .cls-2 {
        fill: url(#Gradiente_sem_nome_22);
      }
    </style>
    <radialGradient id="Gradiente_sem_nome_22" data-name="Gradiente sem nome 22" cx="188.95" cy="175.09" fx="188.95" fy="175.09" r="264.15" gradientUnits="userSpaceOnUse">
      <stop offset=".15" stop-color="#f6f6f6"/>
      <stop offset="1" stop-color="#dadada"/>
    </radialGradient>
  </defs>
  <g id="objects">
    <g>
      <circle class="cls-2" cx="245.69" cy="245.69" r="245.69"/>
      <path class="cls-1" d="M314.61,230.28l-3.31,26.58c-.56,4.44-4.32,7.78-8.78,7.78h-43.05v111.13c-4.54.41-9.14.62-13.79.62-10.4,0-20.55-1.04-30.36-3.02v-108.73h-33.11c-3.04,0-5.52-2.49-5.52-5.54v-33.26c0-3.05,2.48-5.54,5.52-5.54h33.11v-49.88c0-30.61,24.71-55.42,55.2-55.42h38.63c3.04,0,5.52,2.49,5.52,5.54v33.26c0,3.05-2.48,5.54-5.52,5.54h-27.6c-12.19,0-22.07,9.92-22.07,22.17v38.8h46.36c5.32,0,9.43,4.68,8.78,9.98Z"/>
    </g>
  </g>
</svg>