<?xml version="1.0" encoding="utf-8"?>
<!-- Generator: Adobe Illustrator 28.1.0, SVG Export Plug-In . SVG Version: 6.00 Build 0)  -->
<svg version="1.1" id="Camada_1" xmlns="http://www.w3.org/2000/svg" xmlns:xlink="http://www.w3.org/1999/xlink" x="0px" y="0px"
	 viewBox="0 0 491.37 491.37" style="enable-background:new 0 0 491.37 491.37;" xml:space="preserve">
<style type="text/css">
	.st0{fill:url(#SVGID_1_);}
	.st1{fill:#FFFFFF;}
</style>
<g>
	<radialGradient id="SVGID_1_" cx="245.6862" cy="245.6862" r="245.6862" gradientUnits="userSpaceOnUse">
		<stop  offset="0" style="stop-color:#004C95"/>
		<stop  offset="1" style="stop-color:#1F305A"/>
	</radialGradient>
	<circle class="st0" cx="245.69" cy="245.69" r="245.69"/>
	<g>
		<path class="st1" d="M299.59,141.47H191.78c-27.78,0-50.31,22.53-50.31,50.31v107.81c0,27.78,22.53,50.31,50.31,50.31h107.81
			c27.78,0,50.31-22.53,50.31-50.31V191.78C349.9,164,327.37,141.47,299.59,141.47z M331.93,296c0,19.84-16.1,35.94-35.94,35.94
			H195.38c-19.84,0-35.94-16.1-35.94-35.94V195.38c0-19.84,16.1-35.94,35.94-35.94H296c19.84,0,35.94,16.1,35.94,35.94V296z"/>
		<path class="st1" d="M245.79,191.78c-29.75,0-53.9,24.15-53.9,53.9c0,29.75,24.15,53.9,53.9,53.9c29.75,0,53.9-24.15,53.9-53.9
			C299.69,215.93,275.54,191.78,245.79,191.78z M245.79,281.62c-19.8,0-35.94-16.14-35.94-35.94s16.14-35.94,35.94-35.94
			c19.8,0,35.94,16.14,35.94,35.94S265.59,281.62,245.79,281.62z"/>
		<circle class="st1" cx="303.29" cy="188.19" r="10.78"/>
	</g>
</g>
</svg>
