<?xml version="1.0" encoding="UTF-8"?>
<svg xmlns="http://www.w3.org/2000/svg" xmlns:xlink="http://www.w3.org/1999/xlink" viewBox="0 0 385.24 321.43">
  <defs>
    <style>
      .cls-1, .cls-2, .cls-3, .cls-4, .cls-5, .cls-6, .cls-7 {
        stroke-width: 0px;
      }

      .cls-1, .cls-6 {
        fill: #4a567a;
      }

      .cls-2, .cls-4 {
        fill: #27325a;
      }

      .cls-8 {
        isolation: isolate;
      }

      .cls-3 {
        fill: none;
      }

      .cls-4 {
        mix-blend-mode: multiply;
        opacity: .65;
      }

      .cls-5 {
        fill: #fff;
      }

      .cls-6 {
        mix-blend-mode: screen;
        opacity: .5;
      }

      .cls-9 {
        clip-path: url(#clippath);
      }

      .cls-7 {
        fill: #0d4c92;
      }
    </style>
    <clipPath id="clippath">
      <circle class="cls-3" cx="192.79" cy="161.84" r="96.98" transform="translate(8.61 333.42) rotate(-82.98)"/>
    </clipPath>
  </defs>
  <g class="cls-8">
    <g id="Camada_2" data-name="Camada 2">
      <g id="TEXTS">
        <g>
          <path class="cls-7" d="M336.28,145.8c-.23-2.13-.51-4.28-.84-6.38-1.8-11.66,2.15-23.63,10.38-31.9l-10.52-23.51c-.7.04-1.4.06-2.1.06-11.11,0-21.56-4.97-28.67-13.63-1.35-1.64-2.75-3.28-4.19-4.88-7.91-8.82-11.14-21.06-8.71-32.52l-21.61-14c-6.27,4.59-13.91,7.09-21.81,7.09-3.86,0-7.69-.6-11.38-1.77-2.03-.65-4.11-1.26-6.16-1.81-11.44-3.09-20.8-11.6-25-22.54h-25.78c-4.2,10.93-13.56,19.44-24.99,22.54l-.34.09c-3.24.89-6.58,1.34-9.93,1.34-8.42,0-16.5-2.84-23.04-8.04l-22.19,13.1c1.95,11.55-1.77,23.65-10.04,32.14-1.49,1.53-2.97,3.11-4.38,4.7-7.06,7.92-17.16,12.47-27.69,12.47-1.21,0-2.42-.06-3.63-.18l-11.47,23.01c7.92,8.58,11.39,20.62,9.08,32.07-.46,2.29-.88,4.65-1.23,7-1.74,11.57-9.13,21.7-19.53,27.04l2.88,25.51c11.44,2.84,20.69,10.9,25.07,22,.86,2.19,1.8,4.4,2.77,6.54,4.83,10.66,4.14,23.19-1.68,33.33l16.32,19.87c3.78-1.28,7.7-1.92,11.71-1.92,7.77,0,15.24,2.4,21.61,6.93,1.73,1.23,3.51,2.44,5.31,3.61,9.93,6.43,16.24,17.37,16.92,29.05l24.5,7.8c6.92-8.77,17.49-13.93,28.81-13.93.56,0,1.13.01,1.69.04,2.13.1,4.24.15,6.27.15h.3c11.84,0,23.11,5.74,30.04,15.16l24.87-6.79c1.16-11.63,7.92-22.3,18.1-28.3,1.83-1.08,3.67-2.22,5.46-3.39,6.09-3.97,13.12-6.06,20.35-6.06,4.48,0,8.97.83,13.15,2.43l17.15-19.2c-5.35-10.41-5.47-23.06-.17-33.65.96-1.92,1.88-3.87,2.75-5.8,4.83-10.83,14.67-18.76,26.1-21.21l3.95-25.44c-10.19-5.83-17.17-16.4-18.45-28.21ZM260.16,49.77c4.17,0,7.55,3.38,7.55,7.55s-3.38,7.55-7.55,7.55-7.55-3.38-7.55-7.55,3.38-7.55,7.55-7.55ZM186.88,31.75c3.5-2.27,8.17-1.28,10.45,2.21,2.27,3.5,1.28,8.17-2.21,10.45-3.5,2.27-8.17,1.28-10.45-2.21-2.27-3.5-1.28-8.17,2.21-10.45ZM124.14,50.95c1.98-3.67,6.56-5.04,10.23-3.06,3.67,1.98,5.04,6.56,3.06,10.23-1.98,3.67-6.56,5.04-10.23,3.06-3.67-1.98-5.04-6.56-3.06-10.23ZM72.27,183.57c-3.28,2.57-8.03,2-10.6-1.28-2.57-3.28-2-8.03,1.28-10.6,3.28-2.57,8.03-2,10.6,1.28,2.57,3.28,2,8.03-1.28,10.6ZM81.48,114.18c-4.16.36-7.81-2.72-8.17-6.88-.36-4.16,2.72-7.81,6.88-8.17,4.15-.36,7.81,2.72,8.17,6.88.36,4.15-2.72,7.81-6.88,8.17ZM101.48,245.41c-1.39,3.93-5.7,6-9.63,4.61-3.93-1.39-6-5.7-4.61-9.63,1.39-3.93,5.7-6,9.63-4.61,3.93,1.39,6,5.7,4.61,9.63ZM158.45,292.38c-4.02,1.09-8.17-1.29-9.26-5.31-1.09-4.02,1.29-8.17,5.31-9.26,4.02-1.09,8.17,1.29,9.26,5.31,1.09,4.02-1.29,8.17-5.31,9.26ZM230.22,291.71c-2.87,3.03-7.65,3.16-10.67.29-3.03-2.87-3.16-7.65-.29-10.67,2.87-3.03,7.65-3.16,10.67-.29,3.03,2.87,3.16,7.65.29,10.67ZM192.79,258.82c-53.56,0-96.98-43.42-96.98-96.98s43.42-96.98,96.98-96.98,96.98,43.42,96.98,96.98-43.42,96.98-96.98,96.98ZM294.69,249.71c-.7,4.11-4.61,6.87-8.72,6.17-4.11-.71-6.87-4.61-6.17-8.72.7-4.11,4.61-6.87,8.72-6.17,4.11.71,6.87,4.61,6.17,8.72ZM302.93,116.11c-3.52-2.23-4.57-6.89-2.34-10.42,2.23-3.52,6.89-4.57,10.42-2.34,3.52,2.23,4.57,6.89,2.34,10.42-2.23,3.52-6.89,4.57-10.42,2.34ZM321.19,188.97c-3.81,1.69-8.27-.02-9.97-3.83-1.69-3.81.02-8.27,3.83-9.97,3.81-1.69,8.27.02,9.97,3.83,1.69,3.81-.02,8.27-3.83,9.97Z"/>
          <g>
            <path class="cls-5" d="M342.33,110.32c-12.76,0-24.91,5.76-33.02,15.53H90.04c-5.91-13.35-19.47-22.38-34.24-22.38-3.18,0-6.38.41-9.5,1.22l-29.45,7.66c-9.93,2.58-16.86,11.56-16.86,21.81v38.11c0,10.26,6.93,19.23,16.86,21.81l29.45,7.66c3.12.81,6.32,1.22,9.5,1.22,14.77,0,28.33-9.03,34.24-22.38h219.26c8.12,9.77,20.27,15.53,33.02,15.53,23.66,0,42.91-19.25,42.91-42.91s-19.25-42.91-42.91-42.91Z"/>
            <g>
              <path class="cls-2" d="M342.33,190.83c20.77,0,37.61-16.84,37.61-37.61,0-20.77-16.84-37.61-37.61-37.61-12.52,0-23.6,6.12-30.44,15.53H86.4c-5.01-15.72-21.71-25.76-38.75-21.32l-29.45,7.66c-7.6,1.98-12.9,8.84-12.9,16.69v.2s50.65,0,50.65,0c7.32,11.51,7.32,26.21,0,37.72H5.3s0,.19,0,.19c0,7.85,5.3,14.71,12.9,16.69l29.45,7.66c17.04,4.44,33.74-5.6,38.75-21.32h225.5c6.84,9.41,17.92,15.53,30.44,15.53ZM328.76,176.74l-13.58-23.51,13.58-23.51h27.15s13.58,23.51,13.58,23.51l-13.58,23.51h-27.15Z"/>
              <path class="cls-1" d="M286.56,143.97H98.51c-6.64,0-12.02,5.38-12.02,12.02,0,2.18.62,4.2,1.64,5.96-2.32-2.19-3.79-5.28-3.79-8.73,0-6.64,5.38-12.02,12.02-12.02h188.05c4.46,0,8.31,2.46,10.38,6.06-2.15-2.03-5.04-3.3-8.23-3.3Z"/>
            </g>
          </g>
          <g class="cls-9">
            <g>
              <g>
                <polygon class="cls-2" points="110.5 185.82 140.4 218.08 166.91 234.2 230.78 234.2 247.66 219.44 257.97 159.55 110.5 185.82"/>
                <polygon class="cls-4" points="120.74 184 144.72 196.88 184.23 193.69 199 206.08 200.97 224.37 206.07 205.69 199 191.33 233.81 186.61 252.88 189.1 257.97 159.55 120.74 184"/>
              </g>
              <g>
                <g>
                  <g>
                    <polygon class="cls-1" points="234.23 111.92 265.02 116.48 266.46 151.48 230.78 147.28 234.23 111.92"/>
                    <polygon class="cls-2" points="266.46 151.48 243.66 179.25 224.01 177.82 230.78 147.28 266.46 151.48"/>
                    <polygon class="cls-2" points="234.23 111.92 251.7 114.51 248.36 149.51 230.78 147.28 234.23 111.92"/>
                    <polygon class="cls-4" points="248.36 149.51 229.69 178.24 224.01 177.82 230.78 147.28 248.36 149.51"/>
                  </g>
                  <g>
                    <polygon class="cls-1" points="168.13 105.59 128.72 108.73 131.64 150.62 169.12 148.46 168.13 105.59"/>
                    <polygon class="cls-2" points="131.64 150.62 152.03 185.82 174.22 185.82 169.12 148.46 131.64 150.62"/>
                    <polygon class="cls-2" points="168.13 105.59 169.12 148.46 161.63 148.89 158.71 106.34 168.13 105.59"/>
                    <polygon class="cls-4" points="161.63 148.89 168.32 185.82 174.22 185.82 169.12 148.46 161.63 148.89"/>
                  </g>
                  <g>
                    <polygon class="cls-1" points="207.07 105.59 246.47 108.52 243.55 147.61 206.07 145.59 207.07 105.59"/>
                    <polygon class="cls-2" points="243.55 147.61 223.16 180.45 200.97 180.45 206.07 145.59 243.55 147.61"/>
                    <polygon class="cls-2" points="207.07 105.59 206.07 145.59 214.54 146.04 218.08 106.41 207.07 105.59"/>
                    <polygon class="cls-4" points="206.07 145.59 214.54 146.04 207.46 180.45 200.97 180.45 206.07 145.59"/>
                  </g>
                  <polygon class="cls-1" points="211.55 100.47 163.99 100.47 166.91 142.36 208.62 142.36 211.55 100.47"/>
                  <polygon class="cls-2" points="166.91 142.36 173.09 181.89 202.44 181.89 208.62 142.36 166.91 142.36"/>
                </g>
                <g>
                  <polygon class="cls-1" points="122.3 162.13 200.97 155.93 199 185.82 148.92 191.33 110.5 185.82 122.3 162.13"/>
                  <polygon class="cls-6" points="191.68 156.66 190.35 176.58 176.19 176.58 177.23 157.8 191.68 156.66"/>
                  <polygon class="cls-2" points="199 185.82 148.92 188.09 125.74 176.58 133.32 187 110.5 185.82 148.92 191.33 199 185.82"/>
                </g>
              </g>
            </g>
          </g>
        </g>
      </g>
    </g>
  </g>
</svg>