<?xml version="1.0" encoding="UTF-8"?>
<svg id="Camada_2" data-name="Camada 2" xmlns="http://www.w3.org/2000/svg" xmlns:xlink="http://www.w3.org/1999/xlink" viewBox="0 0 491.37 491.37">
  <defs>
    <style>
      .cls-1 {
        fill: #1c2e5b;
      }

      .cls-1, .cls-2 {
        stroke-width: 0px;
      }

      .cls-2 {
        fill: url(#Gradiente_sem_nome_22);
      }
    </style>
    <radialGradient id="Gradiente_sem_nome_22" data-name="Gradiente sem nome 22" cx="188.95" cy="175.09" fx="188.95" fy="175.09" r="264.15" gradientUnits="userSpaceOnUse">
      <stop offset=".15" stop-color="#f6f6f6"/>
      <stop offset="1" stop-color="#dadada"/>
    </radialGradient>
  </defs>
  <g id="objects">
    <g>
      <circle class="cls-2" cx="245.69" cy="245.69" r="245.69"/>
      <g>
        <path class="cls-1" d="M241.71,126.43c-61.4,1.99-112.12,51.72-115.19,113.08-1.11,22.12,3.77,43.03,13.26,61.18l-13.33,59.7c-.56,2.7,1.83,5.09,4.53,4.53l59.7-13.33h.04c18.03,9.42,38.72,14.3,60.68,13.28,61.26-2.84,111.15-53.17,113.52-114.45,2.68-69.4-53.89-126.24-123.2-123.99ZM245.69,340.32c-17.36,0-33.62-4.69-47.6-12.88-1.32-.74-2.59-1.52-3.83-2.35l-38.14,10.16,10.16-38.14c-9.63-14.81-15.22-32.46-15.22-51.43,0-52.17,42.46-94.63,94.63-94.63s94.63,42.46,94.63,94.63-42.46,94.63-94.63,94.63Z"/>
        <path class="cls-1" d="M301.81,287.34c-1.65,2.48-3.38,4.79-6.15,7.55-6.06,6.06-14.48,9.12-23.02,8.25-15.3-1.57-37.04-10.02-55.73-28.67-18.69-18.69-27.14-40.43-28.67-55.73-.87-8.54,2.19-16.95,8.25-23.02,2.76-2.76,5.07-4.5,7.55-6.19,4.58-3.09,10.81-1.03,12.54,4.17l6.27,18.81c1.73,5.16.95,8.42-1.28,10.6l-4.99,5.04c-2.48,2.48-2.89,6.31-.99,9.28,2.76,4.33,7.96,11.26,17.53,20.83,9.57,9.57,16.5,14.77,20.83,17.53,2.97,1.9,6.81,1.49,9.28-.99l5.04-4.99c2.19-2.23,5.45-3.01,10.6-1.28l18.81,6.27c5.2,1.73,7.26,7.96,4.13,12.54Z"/>
      </g>
    </g>
  </g>
</svg>