<?xml version="1.0" encoding="UTF-8"?>
<svg xmlns="http://www.w3.org/2000/svg" xmlns:xlink="http://www.w3.org/1999/xlink" viewBox="0 0 474.09 445.91">
  <defs>
    <style>
      .cls-1, .cls-2, .cls-3, .cls-4, .cls-5, .cls-6, .cls-7 {
        stroke-width: 0px;
      }

      .cls-1, .cls-6 {
        fill: #4a567a;
      }

      .cls-2, .cls-4 {
        fill: #27325a;
      }

      .cls-8 {
        isolation: isolate;
      }

      .cls-3 {
        fill: none;
      }

      .cls-4 {
        mix-blend-mode: multiply;
        opacity: .65;
      }

      .cls-5 {
        fill: #fff;
      }

      .cls-6 {
        mix-blend-mode: screen;
        opacity: .5;
      }

      .cls-9 {
        clip-path: url(#clippath);
      }

      .cls-7 {
        fill: #0d4c92;
      }
    </style>
    <clipPath id="clippath">
      <circle class="cls-3" cx="237.8" cy="161.84" r="96.98" transform="translate(48.12 378.09) rotate(-82.98)"/>
    </clipPath>
  </defs>
  <g class="cls-8">
    <g id="Camada_2" data-name="Camada 2">
      <g id="TEXTS">
        <g>
          <path class="cls-7" d="M381.29,145.8c-.23-2.13-.51-4.28-.84-6.38-1.8-11.66,2.15-23.63,10.38-31.9l-10.52-23.51c-.7.04-1.4.06-2.1.06-11.11,0-21.56-4.97-28.67-13.63-1.35-1.64-2.75-3.28-4.19-4.88-7.91-8.82-11.14-21.06-8.71-32.52l-21.61-14c-6.27,4.59-13.91,7.09-21.81,7.09-3.86,0-7.69-.6-11.38-1.77-2.03-.65-4.11-1.26-6.16-1.81-11.44-3.09-20.8-11.6-25-22.54h-25.78c-4.2,10.93-13.56,19.44-24.99,22.54l-.34.09c-3.24.89-6.58,1.34-9.93,1.34-8.42,0-16.5-2.84-23.04-8.04l-22.19,13.1c1.95,11.55-1.77,23.65-10.04,32.14-1.49,1.53-2.97,3.11-4.38,4.7-7.06,7.92-17.16,12.47-27.69,12.47-1.21,0-2.42-.06-3.63-.18l-11.47,23.01c7.92,8.58,11.39,20.62,9.08,32.07-.46,2.29-.88,4.65-1.23,7-1.74,11.57-9.13,21.7-19.53,27.04l2.88,25.51c11.44,2.84,20.69,10.9,25.07,22,.86,2.19,1.8,4.4,2.77,6.54,4.83,10.66,4.14,23.19-1.68,33.33l16.32,19.87c3.78-1.28,7.7-1.92,11.71-1.92,7.77,0,15.24,2.4,21.61,6.93,1.73,1.23,3.51,2.44,5.31,3.61,9.93,6.43,16.24,17.37,16.92,29.05l24.5,7.8c6.92-8.77,17.49-13.93,28.81-13.93.56,0,1.13.01,1.69.04,2.13.1,4.24.15,6.27.15h.3c11.84,0,23.11,5.74,30.04,15.16l24.87-6.79c1.16-11.63,7.92-22.3,18.1-28.3,1.83-1.08,3.67-2.22,5.46-3.39,6.09-3.97,13.12-6.06,20.35-6.06,4.48,0,8.97.83,13.15,2.43l17.15-19.2c-5.35-10.41-5.47-23.06-.17-33.65.96-1.92,1.88-3.87,2.75-5.8,4.83-10.83,14.67-18.76,26.1-21.21l3.95-25.44c-10.19-5.83-17.17-16.4-18.45-28.21ZM305.16,49.77c4.17,0,7.55,3.38,7.55,7.55s-3.38,7.55-7.55,7.55-7.55-3.38-7.55-7.55,3.38-7.55,7.55-7.55ZM231.89,31.75c3.5-2.27,8.17-1.28,10.45,2.21,2.27,3.5,1.28,8.17-2.21,10.45-3.5,2.27-8.17,1.28-10.45-2.21-2.27-3.5-1.28-8.17,2.21-10.45ZM169.15,50.95c1.98-3.67,6.56-5.04,10.23-3.06,3.67,1.98,5.04,6.56,3.06,10.23-1.98,3.67-6.56,5.04-10.23,3.06-3.67-1.98-5.04-6.56-3.06-10.23ZM117.28,183.57c-3.28,2.57-8.03,2-10.6-1.28-2.57-3.28-2-8.03,1.28-10.6,3.28-2.57,8.03-2,10.6,1.28,2.57,3.28,2,8.03-1.28,10.6ZM126.49,114.18c-4.16.36-7.81-2.72-8.17-6.88-.36-4.16,2.72-7.81,6.88-8.17,4.15-.36,7.81,2.72,8.17,6.88.36,4.15-2.72,7.81-6.88,8.17ZM146.49,245.41c-1.39,3.93-5.7,6-9.63,4.61-3.93-1.39-6-5.7-4.61-9.63,1.39-3.93,5.7-6,9.63-4.61,3.93,1.39,6,5.7,4.61,9.63ZM203.46,292.38c-4.02,1.09-8.17-1.29-9.26-5.31-1.09-4.02,1.29-8.17,5.31-9.26,4.02-1.09,8.17,1.29,9.26,5.31,1.09,4.02-1.29,8.17-5.31,9.26ZM275.23,291.71c-2.87,3.03-7.65,3.16-10.67.29-3.03-2.87-3.16-7.65-.29-10.67,2.87-3.03,7.65-3.16,10.67-.29,3.03,2.87,3.16,7.65.29,10.67ZM237.8,258.82c-53.56,0-96.98-43.42-96.98-96.98s43.42-96.98,96.98-96.98,96.98,43.42,96.98,96.98-43.42,96.98-96.98,96.98ZM339.7,249.71c-.7,4.11-4.61,6.87-8.72,6.17-4.11-.71-6.87-4.61-6.17-8.72.7-4.11,4.61-6.87,8.72-6.17,4.11.71,6.87,4.61,6.17,8.72ZM347.94,116.11c-3.52-2.23-4.57-6.89-2.34-10.42,2.23-3.52,6.89-4.57,10.42-2.34,3.52,2.23,4.57,6.89,2.34,10.42-2.23,3.52-6.89,4.57-10.42,2.34ZM366.2,188.97c-3.81,1.69-8.27-.02-9.97-3.83-1.69-3.81.02-8.27,3.83-9.97,3.81-1.69,8.27.02,9.97,3.83,1.69,3.81-.02,8.27-3.83,9.97Z"/>
          <g>
            <path class="cls-5" d="M387.34,110.32c-12.76,0-24.91,5.76-33.02,15.53h-219.26c-5.91-13.35-19.47-22.38-34.24-22.38-3.18,0-6.38.41-9.5,1.22l-29.45,7.66c-9.93,2.58-16.86,11.56-16.86,21.81v38.11c0,10.26,6.93,19.23,16.86,21.81l29.45,7.66c3.12.81,6.32,1.22,9.5,1.22,14.77,0,28.33-9.03,34.24-22.38h219.26c8.12,9.77,20.27,15.53,33.02,15.53,23.66,0,42.91-19.25,42.91-42.91s-19.25-42.91-42.91-42.91Z"/>
            <g>
              <path class="cls-2" d="M387.34,190.83c20.77,0,37.61-16.84,37.61-37.61,0-20.77-16.84-37.61-37.61-37.61-12.52,0-23.6,6.12-30.44,15.53h-225.5c-5.01-15.72-21.71-25.76-38.75-21.32l-29.45,7.66c-7.6,1.98-12.9,8.84-12.9,16.69v.2s50.65,0,50.65,0c7.32,11.51,7.32,26.21,0,37.72h-50.65s0,.19,0,.19c0,7.85,5.3,14.71,12.9,16.69l29.45,7.66c17.04,4.44,33.74-5.6,38.75-21.32h225.5c6.84,9.41,17.92,15.53,30.44,15.53ZM373.76,176.74l-13.58-23.51,13.58-23.51h27.15s13.58,23.51,13.58,23.51l-13.58,23.51h-27.15Z"/>
              <path class="cls-1" d="M331.56,143.97h-188.05c-6.64,0-12.02,5.38-12.02,12.02,0,2.18.62,4.2,1.64,5.96-2.32-2.19-3.79-5.28-3.79-8.73,0-6.64,5.38-12.02,12.02-12.02h188.05c4.46,0,8.31,2.46,10.38,6.06-2.15-2.03-5.04-3.3-8.23-3.3Z"/>
            </g>
          </g>
          <g class="cls-9">
            <g>
              <g>
                <g>
                  <polygon class="cls-2" points="155.51 185.82 185.4 218.08 211.92 234.2 275.78 234.2 292.67 219.44 302.97 159.55 155.51 185.82"/>
                  <polygon class="cls-4" points="165.75 184 189.73 196.88 229.24 193.69 244.01 206.08 245.98 224.37 251.08 205.69 244.01 191.33 278.82 186.61 297.89 189.1 302.97 159.55 165.75 184"/>
                </g>
                <g>
                  <g>
                    <g>
                      <polygon class="cls-1" points="279.24 111.92 310.02 116.48 311.47 151.48 275.78 147.28 279.24 111.92"/>
                      <polygon class="cls-2" points="311.47 151.48 288.67 179.25 269.02 177.82 275.78 147.28 311.47 151.48"/>
                      <polygon class="cls-2" points="279.24 111.92 296.71 114.51 293.36 149.51 275.78 147.28 279.24 111.92"/>
                      <polygon class="cls-4" points="293.36 149.51 274.7 178.24 269.02 177.82 275.78 147.28 293.36 149.51"/>
                    </g>
                    <g>
                      <polygon class="cls-1" points="213.13 105.59 173.73 108.73 176.65 150.62 214.13 148.46 213.13 105.59"/>
                      <polygon class="cls-2" points="176.65 150.62 197.04 185.82 219.23 185.82 214.13 148.46 176.65 150.62"/>
                      <polygon class="cls-2" points="213.13 105.59 214.13 148.46 206.63 148.89 203.72 106.34 213.13 105.59"/>
                      <polygon class="cls-4" points="206.63 148.89 213.33 185.82 219.23 185.82 214.13 148.46 206.63 148.89"/>
                    </g>
                    <g>
                      <polygon class="cls-1" points="252.07 105.59 291.48 108.52 288.56 147.61 251.08 145.59 252.07 105.59"/>
                      <polygon class="cls-2" points="288.56 147.61 268.17 180.45 245.98 180.45 251.08 145.59 288.56 147.61"/>
                      <polygon class="cls-2" points="252.07 105.59 251.08 145.59 259.55 146.04 263.08 106.41 252.07 105.59"/>
                      <polygon class="cls-4" points="251.08 145.59 259.55 146.04 252.47 180.45 245.98 180.45 251.08 145.59"/>
                    </g>
                    <polygon class="cls-1" points="256.56 100.47 208.99 100.47 211.92 142.36 253.63 142.36 256.56 100.47"/>
                    <polygon class="cls-2" points="211.92 142.36 218.1 181.89 247.45 181.89 253.63 142.36 211.92 142.36"/>
                  </g>
                  <g>
                    <polygon class="cls-1" points="167.31 162.13 245.98 155.93 244.01 185.82 193.93 191.33 155.51 185.82 167.31 162.13"/>
                    <polygon class="cls-6" points="236.68 156.66 235.36 176.58 221.2 176.58 222.24 157.8 236.68 156.66"/>
                    <polygon class="cls-2" points="244.01 185.82 193.93 188.09 170.75 176.58 178.32 187 155.51 185.82 193.93 191.33 244.01 185.82"/>
                  </g>
                </g>
              </g>
              <polygon class="cls-2" points="203.72 224.37 182.79 450.08 293.63 450.08 281.19 223.89 203.72 224.37"/>
            </g>
          </g>
          <g>
            <g>
              <path class="cls-2" d="M451.17,420.34c3.68,0,6.67-2.99,6.67-6.67,0-3.68-2.99-6.67-6.67-6.67-2.22,0-4.19,1.09-5.4,2.75H35.73c-.89-2.79-3.85-4.57-6.87-3.78l-5.22,1.36c-1.35.35-2.29,1.57-2.29,2.96v.03s8.99,0,8.99,0c1.3,2.04,1.3,4.65,0,6.69h-8.99s0,.03,0,.03c0,1.39.94,2.61,2.29,2.96l5.22,1.36c3.02.79,5.99-.99,6.87-3.78h410.03c1.21,1.67,3.18,2.75,5.4,2.75ZM448.76,417.84l-2.41-4.17,2.41-4.17h4.82s2.41,4.17,2.41,4.17l-2.41,4.17h-4.82Z"/>
              <path class="cls-1" d="M442.27,412.02H37.88c-1.18,0-2.13.95-2.13,2.13,0,.39.11.74.29,1.06-.41-.39-.67-.94-.67-1.55,0-1.18.95-2.13,2.13-2.13h404.39c.79,0,1.47.44,1.84,1.08-.38-.36-.89-.58-1.46-.58Z"/>
            </g>
            <g>
              <path class="cls-2" d="M52.84,393.75c0,1.04.24,1.95.72,2.75.48.8,1.45,1.34,2.91,1.63,1.46.29,2.32.59,2.6.89.28.3.42.67.42,1.1,0,.46-.2.84-.59,1.16-.39.32-.96.47-1.69.47-.56,0-1.63-.12-3.22-.36-1.59-.24-2.92-.36-3.98-.36-.71,0-1.97.12-3.79.36-1.82.24-3.12.36-3.91.36-1.62,0-2.43-.6-2.43-1.79,0-.58.18-.97.53-1.16.35-.19.91-.32,1.67-.4,1.85-.2,3.01-.55,3.48-1.04.47-.49.7-1.65.7-3.47v-32.58c0-1.39-.07-2.09-.19-2.09-.18,0-.61.67-1.29,2.01l-5.88,11.51c-2.46,4.81-4.69,9.08-6.7,12.81-2.01,3.73-3.09,5.74-3.23,6.02s-.3.51-.48.68-.46.27-.84.27c-.63,0-1.21-.49-1.71-1.48l-14.2-28.1c-.66-1.32-1.06-1.97-1.22-1.97-.13,0-.19.66-.19,1.97v32.17c0,.94.41,1.71,1.22,2.33s1.6.93,2.36.93c2.13,0,3.19.6,3.19,1.81,0,1.1-.93,1.65-2.77,1.65-.3,0-1.16-.13-2.57-.4-1.41-.27-2.4-.4-2.98-.4-.76,0-1.81.15-3.14.44s-2.27.44-2.83.44c-.81,0-1.47-.21-1.98-.63-.51-.42-.76-.86-.76-1.33s.3-.86.89-1.21c.6-.34,1.29-.52,2.07-.52,2.48,0,3.73-1.45,3.73-4.36v-39.7c0-1.04-.33-1.93-.99-2.68-.66-.75-1.6-1.2-2.81-1.37-1.22-.16-2.01-.42-2.39-.78-.38-.35-.57-.8-.57-1.33,0-.38.25-.72.74-1.03.49-.3,1-.46,1.5-.46s1.19.11,1.98.32c.79.22,1.42.32,1.9.32s1.09-.11,1.83-.32c.74-.21,1.33-.32,1.79-.32.61,0,1.1.24,1.46.72.37.48.88,1.44,1.54,2.89l8.63,17.41,7.23,14.48c.3.61.53.91.68.91.18,0,.41-.28.68-.84,7.83-14.7,13.31-25.14,16.45-31.32.94-1.82,1.74-2.98,2.41-3.46.67-.48,1.39-.72,2.15-.72.35,0,.95.05,1.79.15s1.47.15,1.9.15c.41,0,.92-.06,1.54-.19.62-.13,1.01-.19,1.16-.19,1.37,0,2.05.55,2.05,1.66,0,.9-.66,1.35-1.98,1.35-1.09,0-2.04.39-2.85,1.16-.81.77-1.31,1.33-1.48,1.67-.18.34-.27,1.16-.27,2.45v38.94Z"/>
              <path class="cls-2" d="M84.65,399.38c.91,0,1.59-.24,2.07-.71.47-.48.71-1.09.71-1.83,0-.67.15-1.2.45-1.6s.66-.6,1.06-.6.75.19,1.02.56c.27.37.41.87.41,1.49s.03,1.29.08,2.01c.05.72.08,1.21.08,1.48,0,.73-.1,1.2-.31,1.42-.2.22-.73.33-1.58.33h-21.53c-1.51,0-2.54-.11-3.1-.34-.56-.23-.84-.57-.84-1.03,0-.72.51-1.08,1.52-1.08,1.29,0,2.14-.21,2.53-.63.39-.42.59-1.08.59-1.98v-24.35c0-2.63-.04-4.36-.13-5.22s-.31-1.4-.66-1.64c-.36-.24-1.06-.36-2.13-.36-.64,0-1.13-.12-1.48-.36-.35-.24-.52-.55-.52-.93,0-.34.15-.64.45-.9.3-.26.68-.39,1.14-.39h20.49c.82,0,1.35.17,1.6.5.25.34.43.83.55,1.49.11.66.17,1.74.17,3.25,0,.69-.29,1.04-.88,1.04-.34,0-.63-.1-.89-.31-.26-.21-.54-.72-.85-1.55-.31-.83-.63-1.36-.96-1.59-.33-.23-.71-.35-1.13-.35h-7.31c-1.23,0-2,.17-2.32.52s-.48.87-.48,1.56v5.63c0,1.32.18,2.18.53,2.6.36.42,1.08.63,2.16.63h7.09c.59,0,1.03-.23,1.33-.71.3-.47.45-1,.45-1.58,0-.3.12-.55.37-.76.25-.2.54-.31.88-.31.35,0,.65.11.88.34s.35.56.35.98c0,.37-.06.91-.17,1.61-.12.7-.17,1.27-.17,1.71,0,.67.08,1.38.23,2.12.15.74.23,1.19.23,1.35,0,.41-.13.74-.4,1.01-.27.27-.58.4-.93.4-.37,0-.68-.16-.93-.49-.25-.33-.37-.78-.37-1.34,0-.67-.18-1.15-.53-1.44s-.94-.43-1.76-.43h-7.04c-.64,0-1.16.13-1.57.39-.41.26-.61.63-.61,1.13v17c0,.89.23,1.48.68,1.78.45.3,1.23.45,2.33.45h9.17Z"/>
              <path class="cls-2" d="M99.05,369.94c0,.89.3,1.79.91,2.7.61.91,2.17,2.26,4.67,4.05,4.84,3.42,8.06,6.18,9.66,8.28,1.6,2.1,2.39,4.34,2.39,6.71,0,3.37-1.3,5.98-3.91,7.85-2.61,1.87-5.46,2.8-8.57,2.8-2.2,0-4.46-.46-6.77-1.37-2.31-.91-3.47-1.88-3.47-2.89,0-.25.03-.71.08-1.4s.08-1.54.08-2.57c0-.36-.03-.79-.09-1.29-.06-.51-.09-.84-.09-1,0-.66.39-.99,1.16-.99.86,0,1.34.66,1.45,1.97.21,2.17.98,3.85,2.29,5.06,1.31,1.21,3.13,1.81,5.45,1.81s4.28-.66,5.81-1.98,2.3-3.04,2.3-5.17c0-1.27-.52-2.63-1.55-4.06-1.03-1.43-3.75-3.71-8.13-6.83-1.81-1.28-3.23-2.36-4.27-3.26-1.04-.9-1.91-1.96-2.61-3.18s-1.05-2.62-1.05-4.18c0-2.54,1.15-4.64,3.45-6.31s4.94-2.5,7.94-2.5c1.7,0,3.53.42,5.47,1.26s2.91,1.83,2.91,2.97c0,.16,0,.41-.03.76s-.03.86-.03,1.53c0,.18.04.52.11,1.04,0,1.17-.4,1.76-1.21,1.76-.29,0-.57-.14-.85-.41-.28-.27-.42-.57-.42-.89,0-1.73-.59-3.06-1.76-3.99-1.18-.93-2.61-1.39-4.31-1.39-1.93,0-3.58.53-4.96,1.59-1.38,1.06-2.07,2.23-2.07,3.51Z"/>
              <path class="cls-2" d="M142.55,362.84c.6,0,1.09.63,1.46,1.89.37,1.26.56,2.43.56,3.51s-.35,1.62-1.05,1.62c-.25,0-.48-.08-.69-.24-.21-.16-.49-.72-.85-1.68-.36-.96-.9-1.61-1.62-1.96-.72-.34-1.5-.52-2.35-.52-1.2,0-2.07.28-2.61.84-.54.56-.81,1.46-.81,2.72v28.19c0,.43.13.8.39,1.13.26.33.79.61,1.61.85.82.24,1.31.45,1.49.63.18.18.27.39.27.62,0,.93-.49,1.4-1.46,1.4-.53,0-1.31-.08-2.34-.24-1.03-.16-1.79-.24-2.28-.24-.46,0-1.13.07-2.02.2s-1.56.2-2.02.2c-.55,0-1.02-.13-1.41-.38-.39-.25-.58-.6-.58-1.05,0-.21.07-.41.21-.58.14-.17.61-.38,1.41-.61s1.33-.61,1.61-1.1c.27-.5.41-1.06.41-1.67v-28.48c0-1.72-1.16-2.58-3.47-2.58-1.5,0-2.57.34-3.21,1.02-.39.39-.67,1-.85,1.81-.18.81-.36,1.29-.55,1.44-.19.15-.42.23-.69.23-.29,0-.56-.07-.82-.23-.26-.15-.39-.34-.39-.57,0-1.93.17-3.45.51-4.54s.82-1.64,1.46-1.64h20.68Z"/>
              <path class="cls-2" d="M151.51,367.45c0-1.35-.92-2.08-2.75-2.19-1.27-.07-1.91-.48-1.91-1.24s.73-1.19,2.18-1.19c.69,0,1.45.06,2.29.19s1.54.19,2.13.19c.39,0,1.47-.12,3.24-.37,1.77-.25,3.14-.37,4.09-.37,3.65,0,6.61.94,8.89,2.82,2.28,1.88,3.42,4.33,3.42,7.33,0,1.92-.56,3.5-1.69,4.76-1.13,1.25-3.06,2.41-5.81,3.48-.51.2-.77.4-.77.61,0,.14.11.37.32.69.98,1.38,2.82,4.38,5.52,8.98,2.7,4.6,4.14,7.01,4.32,7.21.18.2.65.43,1.41.69.76.26,1.25.51,1.45.77.2.26.31.54.31.86,0,.4-.27.75-.8,1.04-.53.29-.96.43-1.28.43-.82,0-1.81-.31-2.98-.94s-1.94-1.16-2.32-1.61c-.69-.89-2.96-4.5-6.79-10.84-1.79-2.96-2.82-4.62-3.09-5-.96-1.38-1.9-2.27-2.82-2.66-.23-.09-.38-.18-.45-.28s-.11-.31-.11-.63c0-.77.46-1.16,1.38-1.16.09,0,.34.03.74.09.41.06.81.09,1.19.09,1.95,0,3.57-.63,4.88-1.89,1.31-1.26,1.96-3.02,1.96-5.28,0-1.6-.74-3.19-2.21-4.77s-3.51-2.37-6.12-2.37c-.98,0-1.69.11-2.14.33-.45.22-.74.5-.85.83-.12.33-.17.76-.17,1.29v29.85c0,.59.25,1.06.76,1.43.51.36,1.17.55,1.99.55.89,0,1.49.11,1.79.34.3.23.45.56.45,1s-.19.77-.57,1.05c-.38.28-.95.42-1.71.42-.69,0-1.54-.2-2.54-.6s-1.79-.6-2.38-.6c-.5,0-1.24.19-2.23.57-.99.38-1.77.57-2.34.57-1.63,0-2.44-.51-2.44-1.53,0-.39.13-.67.4-.86.26-.19.93-.28,1.98-.28.63,0,1.15-.14,1.56-.43s.61-.63.61-1.04v-30.35Z"/>
              <path class="cls-2" d="M202.06,399.38c.91,0,1.59-.24,2.07-.71.47-.48.71-1.09.71-1.83,0-.67.15-1.2.45-1.6s.66-.6,1.06-.6.75.19,1.02.56c.27.37.41.87.41,1.49s.03,1.29.08,2.01c.05.72.08,1.21.08,1.48,0,.73-.1,1.2-.31,1.42-.2.22-.73.33-1.58.33h-21.53c-1.51,0-2.54-.11-3.1-.34-.56-.23-.84-.57-.84-1.03,0-.72.51-1.08,1.52-1.08,1.29,0,2.14-.21,2.53-.63.39-.42.59-1.08.59-1.98v-24.35c0-2.63-.04-4.36-.13-5.22s-.31-1.4-.66-1.64c-.36-.24-1.06-.36-2.13-.36-.64,0-1.13-.12-1.48-.36-.35-.24-.52-.55-.52-.93,0-.34.15-.64.45-.9.3-.26.68-.39,1.14-.39h20.49c.82,0,1.35.17,1.6.5.25.34.43.83.55,1.49.11.66.17,1.74.17,3.25,0,.69-.29,1.04-.88,1.04-.34,0-.63-.1-.89-.31-.26-.21-.54-.72-.85-1.55-.31-.83-.63-1.36-.96-1.59-.33-.23-.71-.35-1.13-.35h-7.31c-1.23,0-2,.17-2.32.52s-.48.87-.48,1.56v5.63c0,1.32.18,2.18.53,2.6.36.42,1.08.63,2.16.63h7.09c.59,0,1.03-.23,1.33-.71.3-.47.45-1,.45-1.58,0-.3.12-.55.37-.76.25-.2.54-.31.88-.31.35,0,.65.11.88.34s.35.56.35.98c0,.37-.06.91-.17,1.61-.12.7-.17,1.27-.17,1.71,0,.67.08,1.38.23,2.12.15.74.23,1.19.23,1.35,0,.41-.13.74-.4,1.01-.27.27-.58.4-.93.4-.37,0-.68-.16-.93-.49-.25-.33-.37-.78-.37-1.34,0-.67-.18-1.15-.53-1.44s-.94-.43-1.76-.43h-7.04c-.64,0-1.16.13-1.57.39-.41.26-.61.63-.61,1.13v17c0,.89.23,1.48.68,1.78.45.3,1.23.45,2.33.45h9.17Z"/>
              <path class="cls-2" d="M262.89,393.75c0,1.04.24,1.95.72,2.75.48.8,1.45,1.34,2.91,1.63s2.33.59,2.6.89c.28.3.42.67.42,1.1,0,.46-.2.84-.59,1.16-.39.32-.96.47-1.69.47-.56,0-1.63-.12-3.23-.36-1.59-.24-2.92-.36-3.98-.36-.71,0-1.97.12-3.79.36-1.82.24-3.12.36-3.91.36-1.62,0-2.43-.6-2.43-1.79,0-.58.18-.97.53-1.16.35-.19.91-.32,1.67-.4,1.85-.2,3.01-.55,3.48-1.04.47-.49.7-1.65.7-3.47v-32.58c0-1.39-.07-2.09-.2-2.09-.18,0-.61.67-1.29,2.01l-5.88,11.51c-2.46,4.81-4.69,9.08-6.7,12.81-2.01,3.73-3.09,5.74-3.23,6.02s-.3.51-.48.68-.46.27-.84.27c-.63,0-1.21-.49-1.71-1.48l-14.2-28.1c-.66-1.32-1.06-1.97-1.22-1.97-.13,0-.19.66-.19,1.97v32.17c0,.94.41,1.71,1.22,2.33s1.6.93,2.36.93c2.13,0,3.19.6,3.19,1.81,0,1.1-.93,1.65-2.77,1.65-.3,0-1.16-.13-2.57-.4-1.41-.27-2.4-.4-2.98-.4-.76,0-1.81.15-3.14.44s-2.27.44-2.83.44c-.81,0-1.47-.21-1.98-.63-.51-.42-.76-.86-.76-1.33s.3-.86.89-1.21c.6-.34,1.29-.52,2.07-.52,2.48,0,3.73-1.45,3.73-4.36v-39.7c0-1.04-.33-1.93-.99-2.68-.66-.75-1.6-1.2-2.81-1.37-1.22-.16-2.01-.42-2.39-.78-.38-.35-.57-.8-.57-1.33,0-.38.25-.72.74-1.03.49-.3,1-.46,1.5-.46s1.19.11,1.98.32c.79.22,1.42.32,1.9.32s1.09-.11,1.83-.32c.74-.21,1.33-.32,1.79-.32.61,0,1.1.24,1.46.72.37.48.88,1.44,1.54,2.89l8.63,17.41,7.23,14.48c.3.61.53.91.68.91.18,0,.41-.28.68-.84,7.83-14.7,13.31-25.14,16.45-31.32.94-1.82,1.74-2.98,2.41-3.46s1.39-.72,2.15-.72c.35,0,.95.05,1.78.15.84.1,1.47.15,1.9.15.4,0,.92-.06,1.54-.19.62-.13,1.01-.19,1.16-.19,1.37,0,2.05.55,2.05,1.66,0,.9-.66,1.35-1.98,1.35-1.09,0-2.04.39-2.85,1.16-.81.77-1.31,1.33-1.48,1.67-.18.34-.27,1.16-.27,2.45v38.94Z"/>
              <path class="cls-2" d="M293.59,362.07c6.21,0,11.09,2.13,14.63,6.39,3.55,4.26,5.32,9.04,5.32,14.34,0,3.92-.96,7.5-2.89,10.75-1.93,3.25-4.43,5.53-7.53,6.86-3.1,1.33-6.38,2-9.86,2-5.66,0-10.37-1.97-14.13-5.91-3.76-3.94-5.64-8.94-5.64-15.01,0-3.17.83-6.31,2.5-9.42,1.67-3.1,4.02-5.55,7.06-7.33s6.55-2.67,10.52-2.67ZM293.43,399.88c3.34,0,6.13-.74,8.36-2.21s3.83-3.29,4.79-5.45,1.44-5.03,1.44-8.62c0-6.2-1.3-10.94-3.89-14.22-2.6-3.28-6.1-4.92-10.53-4.92s-8.14,1.68-10.72,5.05-3.87,7.36-3.87,11.98c0,12.26,4.81,18.39,14.42,18.39Z"/>
              <path class="cls-2" d="M339.01,362.84c.6,0,1.09.63,1.46,1.89s.56,2.43.56,3.51-.35,1.62-1.05,1.62c-.25,0-.48-.08-.69-.24-.21-.16-.49-.72-.85-1.68-.36-.96-.9-1.61-1.62-1.96s-1.5-.52-2.35-.52c-1.2,0-2.07.28-2.61.84s-.81,1.46-.81,2.72v28.19c0,.43.13.8.39,1.13s.79.61,1.61.85,1.31.45,1.49.63.27.39.27.62c0,.93-.49,1.4-1.46,1.4-.53,0-1.31-.08-2.34-.24-1.03-.16-1.79-.24-2.28-.24-.46,0-1.13.07-2.02.2-.89.13-1.56.2-2.02.2-.55,0-1.02-.13-1.41-.38-.39-.25-.58-.6-.58-1.05,0-.21.07-.41.21-.58.14-.17.61-.38,1.41-.61.8-.24,1.33-.61,1.61-1.1s.41-1.06.41-1.67v-28.48c0-1.72-1.16-2.58-3.47-2.58-1.5,0-2.57.34-3.21,1.02-.39.39-.67,1-.85,1.81-.18.81-.36,1.29-.55,1.44-.19.15-.42.23-.69.23-.29,0-.56-.07-.82-.23-.26-.15-.39-.34-.39-.57,0-1.93.17-3.45.5-4.54s.82-1.64,1.46-1.64h20.68Z"/>
              <path class="cls-2" d="M363.99,362.07c6.21,0,11.09,2.13,14.63,6.39,3.55,4.26,5.32,9.04,5.32,14.34,0,3.92-.96,7.5-2.89,10.75-1.93,3.25-4.43,5.53-7.53,6.86-3.1,1.33-6.38,2-9.86,2-5.66,0-10.37-1.97-14.13-5.91-3.76-3.94-5.64-8.94-5.64-15.01,0-3.17.83-6.31,2.5-9.42,1.67-3.1,4.02-5.55,7.06-7.33s6.55-2.67,10.52-2.67ZM363.83,399.88c3.34,0,6.13-.74,8.36-2.21s3.83-3.29,4.79-5.45,1.44-5.03,1.44-8.62c0-6.2-1.3-10.94-3.89-14.22-2.6-3.28-6.1-4.92-10.53-4.92s-8.14,1.68-10.72,5.05-3.87,7.36-3.87,11.98c0,12.26,4.81,18.39,14.42,18.39Z"/>
              <path class="cls-2" d="M391.5,367.45c0-1.35-.92-2.08-2.75-2.19-1.27-.07-1.9-.48-1.9-1.24s.73-1.19,2.18-1.19c.69,0,1.45.06,2.29.19.83.12,1.54.19,2.13.19.39,0,1.47-.12,3.24-.37s3.14-.37,4.09-.37c3.65,0,6.61.94,8.89,2.82,2.28,1.88,3.42,4.33,3.42,7.33,0,1.92-.56,3.5-1.69,4.76-1.13,1.25-3.06,2.41-5.81,3.48-.51.2-.77.4-.77.61,0,.14.11.37.32.69.98,1.38,2.82,4.38,5.52,8.98,2.7,4.6,4.14,7.01,4.32,7.21.18.2.65.43,1.41.69s1.25.51,1.45.77c.2.26.31.54.31.86,0,.4-.27.75-.8,1.04-.53.29-.96.43-1.28.43-.82,0-1.81-.31-2.99-.94s-1.94-1.16-2.32-1.61c-.69-.89-2.96-4.5-6.79-10.84-1.79-2.96-2.82-4.62-3.09-5-.96-1.38-1.9-2.27-2.82-2.66-.23-.09-.38-.18-.45-.28s-.11-.31-.11-.63c0-.77.46-1.16,1.38-1.16.09,0,.34.03.74.09s.81.09,1.19.09c1.95,0,3.57-.63,4.88-1.89,1.31-1.26,1.96-3.02,1.96-5.28,0-1.6-.74-3.19-2.21-4.77s-3.51-2.37-6.12-2.37c-.98,0-1.69.11-2.14.33-.45.22-.74.5-.85.83-.11.33-.17.76-.17,1.29v29.85c0,.59.25,1.06.76,1.43s1.17.55,1.99.55c.89,0,1.49.11,1.79.34.3.23.46.56.46,1s-.19.77-.57,1.05c-.38.28-.95.42-1.71.42-.69,0-1.54-.2-2.54-.6s-1.79-.6-2.38-.6c-.5,0-1.24.19-2.23.57s-1.77.57-2.34.57c-1.63,0-2.44-.51-2.44-1.53,0-.39.13-.67.4-.86.26-.19.93-.28,1.99-.28.63,0,1.15-.14,1.56-.43s.61-.63.61-1.04v-30.35Z"/>
              <path class="cls-2" d="M442.05,399.38c.91,0,1.59-.24,2.07-.71.47-.48.71-1.09.71-1.83,0-.67.15-1.2.45-1.6s.66-.6,1.06-.6.75.19,1.02.56.41.87.41,1.49.03,1.29.08,2.01c.05.72.08,1.21.08,1.48,0,.73-.1,1.2-.31,1.42-.2.22-.73.33-1.58.33h-21.53c-1.51,0-2.54-.11-3.1-.34-.56-.23-.84-.57-.84-1.03,0-.72.51-1.08,1.52-1.08,1.29,0,2.14-.21,2.53-.63.39-.42.59-1.08.59-1.98v-24.35c0-2.63-.04-4.36-.13-5.22-.09-.85-.31-1.4-.67-1.64-.36-.24-1.06-.36-2.13-.36-.64,0-1.13-.12-1.48-.36-.35-.24-.52-.55-.52-.93,0-.34.15-.64.45-.9.3-.26.68-.39,1.14-.39h20.49c.82,0,1.35.17,1.6.5.25.34.43.83.54,1.49.12.66.17,1.74.17,3.25,0,.69-.29,1.04-.88,1.04-.34,0-.63-.1-.89-.31-.26-.21-.54-.72-.85-1.55-.31-.83-.63-1.36-.96-1.59s-.71-.35-1.13-.35h-7.31c-1.23,0-2,.17-2.32.52-.32.35-.48.87-.48,1.56v5.63c0,1.32.18,2.18.53,2.6.36.42,1.07.63,2.16.63h7.09c.59,0,1.03-.23,1.33-.71.3-.47.45-1,.45-1.58,0-.3.12-.55.37-.76.25-.2.54-.31.88-.31s.65.11.88.34c.23.23.35.56.35.98,0,.37-.06.91-.17,1.61-.12.7-.17,1.27-.17,1.71,0,.67.07,1.38.23,2.12s.23,1.19.23,1.35c0,.41-.13.74-.4,1.01-.27.27-.58.4-.93.4-.37,0-.68-.16-.93-.49-.25-.33-.37-.78-.37-1.34,0-.67-.18-1.15-.53-1.44s-.94-.43-1.76-.43h-7.04c-.64,0-1.16.13-1.57.39-.41.26-.61.63-.61,1.13v17c0,.89.23,1.48.68,1.78s1.23.45,2.33.45h9.17Z"/>
              <path class="cls-2" d="M456.45,369.94c0,.89.3,1.79.91,2.7.61.91,2.17,2.26,4.67,4.05,4.84,3.42,8.06,6.18,9.66,8.28,1.6,2.1,2.39,4.34,2.39,6.71,0,3.37-1.3,5.98-3.91,7.85-2.61,1.87-5.46,2.8-8.57,2.8-2.2,0-4.46-.46-6.77-1.37-2.31-.91-3.47-1.88-3.47-2.89,0-.25.03-.71.08-1.4s.08-1.54.08-2.57c0-.36-.03-.79-.09-1.29s-.09-.84-.09-1c0-.66.39-.99,1.16-.99.86,0,1.34.66,1.45,1.97.21,2.17.98,3.85,2.29,5.06,1.31,1.21,3.13,1.81,5.46,1.81s4.28-.66,5.81-1.98c1.53-1.32,2.3-3.04,2.3-5.17,0-1.27-.52-2.63-1.55-4.06-1.04-1.43-3.75-3.71-8.13-6.83-1.81-1.28-3.23-2.36-4.27-3.26-1.04-.9-1.91-1.96-2.61-3.18-.7-1.22-1.05-2.62-1.05-4.18,0-2.54,1.15-4.64,3.45-6.31s4.94-2.5,7.94-2.5c1.7,0,3.53.42,5.47,1.26,1.94.84,2.91,1.83,2.91,2.97,0,.16,0,.41-.03.76s-.03.86-.03,1.53c0,.18.04.52.11,1.04,0,1.17-.4,1.76-1.21,1.76-.29,0-.57-.14-.85-.41-.28-.27-.42-.57-.42-.89,0-1.73-.59-3.06-1.76-3.99-1.17-.93-2.61-1.39-4.31-1.39-1.93,0-3.58.53-4.96,1.59-1.38,1.06-2.07,2.23-2.07,3.51Z"/>
            </g>
            <g>
              <path class="cls-7" d="M79.39,434.72h-8.99v8.34h10.02v2.51h-13.01v-23.13h12.49v2.51h-9.51v7.31h8.99v2.47Z"/>
              <path class="cls-7" d="M92.38,445.57l-2.07-3.58c-.84-1.37-1.37-2.26-1.87-3.2h-.05c-.46.94-.91,1.8-1.75,3.22l-1.95,3.56h-2.4l4.95-8.19-4.76-8h2.43l2.14,3.8c.6,1.06,1.06,1.87,1.49,2.74h.07c.46-.96.86-1.71,1.47-2.74l2.21-3.8h2.4l-4.93,7.88,5.05,8.31h-2.43Z"/>
              <path class="cls-7" d="M107.85,445.04c-.77.39-2.31.77-4.28.77-4.57,0-8-2.88-8-8.19s3.44-8.51,8.46-8.51c2.02,0,3.29.43,3.84.72l-.5,1.71c-.79-.39-1.92-.67-3.27-.67-3.8,0-6.32,2.43-6.32,6.68,0,3.97,2.28,6.51,6.22,6.51,1.27,0,2.57-.26,3.41-.67l.43,1.66Z"/>
              <path class="cls-7" d="M118.85,437.97h-6.3v5.84h7.02v1.75h-9.11v-16.2h8.75v1.75h-6.66v5.12h6.3v1.73Z"/>
              <path class="cls-7" d="M122.29,429.37h2.09v14.44h6.92v1.75h-9.01v-16.2Z"/>
              <path class="cls-7" d="M142.01,437.97h-6.3v5.84h7.02v1.75h-9.11v-16.2h8.75v1.75h-6.66v5.12h6.3v1.73ZM138.77,425.77l2.52,2.74h-1.78l-1.54-1.66h-.05l-1.51,1.66h-1.73l2.47-2.74h1.61Z"/>
              <path class="cls-7" d="M145.44,445.57v-16.2h2.28l5.19,8.19c1.2,1.9,2.14,3.6,2.91,5.26l.05-.02c-.19-2.16-.24-4.13-.24-6.66v-6.78h1.97v16.2h-2.11l-5.14-8.22c-1.13-1.8-2.21-3.65-3.03-5.41l-.07.02c.12,2.04.17,3.99.17,6.68v6.92h-1.97Z"/>
              <path class="cls-7" d="M172.57,445.04c-.77.39-2.31.77-4.28.77-4.57,0-8-2.88-8-8.19s3.44-8.51,8.46-8.51c2.02,0,3.29.43,3.84.72l-.5,1.71c-.79-.39-1.92-.67-3.27-.67-3.8,0-6.32,2.43-6.32,6.68,0,3.97,2.28,6.51,6.22,6.51,1.27,0,2.57-.26,3.41-.67l.43,1.66Z"/>
              <path class="cls-7" d="M177.27,429.37v16.2h-2.09v-16.2h2.09Z"/>
              <path class="cls-7" d="M183.54,440.47l-1.68,5.09h-2.16l5.5-16.2h2.52l5.53,16.2h-2.24l-1.73-5.09h-5.74ZM188.86,438.84l-1.59-4.66c-.36-1.06-.6-2.02-.84-2.96h-.05c-.24.96-.5,1.95-.82,2.93l-1.59,4.69h4.88Z"/>
              <path class="cls-7" d="M211.29,437.97h-6.3v5.84h7.02v1.75h-9.11v-16.2h8.75v1.75h-6.66v5.12h6.3v1.73Z"/>
              <path class="cls-7" d="M228.37,438.45c-.12-2.26-.26-4.97-.24-6.99h-.07c-.55,1.9-1.23,3.92-2.04,6.15l-2.86,7.86h-1.59l-2.62-7.71c-.77-2.28-1.42-4.37-1.87-6.3h-.05c-.05,2.02-.17,4.73-.31,7.16l-.43,6.94h-1.99l1.13-16.2h2.67l2.76,7.83c.67,1.99,1.23,3.77,1.63,5.45h.07c.41-1.63.99-3.41,1.71-5.45l2.88-7.83h2.67l1.01,16.2h-2.04l-.41-7.11Z"/>
              <path class="cls-7" d="M258.26,444.81c-1.1.55-3.29,1.1-6.11,1.1-6.52,0-11.43-4.12-11.43-11.7s4.91-12.15,12.08-12.15c2.88,0,4.7.62,5.49,1.03l-.72,2.44c-1.13-.55-2.75-.96-4.67-.96-5.42,0-9.03,3.47-9.03,9.54,0,5.66,3.26,9.3,8.89,9.3,1.82,0,3.67-.38,4.87-.96l.62,2.37Z"/>
              <path class="cls-7" d="M263.84,440.47l-1.68,5.09h-2.16l5.5-16.2h2.52l5.53,16.2h-2.24l-1.73-5.09h-5.74ZM269.15,438.84l-1.59-4.66c-.36-1.06-.6-2.02-.84-2.96h-.05c-.24.96-.5,1.95-.82,2.93l-1.59,4.69h4.88Z"/>
              <path class="cls-7" d="M275.92,429.59c1.27-.19,2.79-.34,4.45-.34,3,0,5.14.7,6.56,2.02,1.44,1.32,2.28,3.2,2.28,5.81s-.82,4.81-2.33,6.3c-1.51,1.51-4.01,2.33-7.16,2.33-1.49,0-2.74-.07-3.8-.19v-15.93ZM278.01,443.91c.53.1,1.3.12,2.11.12,4.47,0,6.9-2.5,6.9-6.87.02-3.82-2.14-6.25-6.56-6.25-1.08,0-1.9.1-2.45.22v12.78Z"/>
              <path class="cls-7" d="M294.2,440.47l-1.68,5.09h-2.16l5.5-16.2h2.52l5.53,16.2h-2.24l-1.73-5.09h-5.74ZM299.51,438.84l-1.59-4.66c-.36-1.06-.6-2.02-.84-2.96h-.05c-.24.96-.5,1.95-.82,2.93l-1.59,4.69h4.88Z"/>
              <path class="cls-7" d="M314.34,422.74c1.82-.27,3.98-.48,6.35-.48,4.29,0,7.34,1,9.37,2.88,2.06,1.89,3.26,4.56,3.26,8.31s-1.17,6.86-3.33,8.99c-2.16,2.16-5.73,3.33-10.23,3.33-2.13,0-3.91-.1-5.42-.27v-22.75ZM317.33,443.2c.76.14,1.85.17,3.02.17,6.38,0,9.85-3.57,9.85-9.82.03-5.46-3.05-8.92-9.37-8.92-1.54,0-2.71.14-3.5.31v18.26Z"/>
              <path class="cls-7" d="M344.8,437.97h-6.3v5.84h7.02v1.75h-9.11v-16.2h8.75v1.75h-6.66v5.12h6.3v1.73Z"/>
              <path class="cls-7" d="M351.7,431.15h-4.93v-1.78h11.99v1.78h-4.95v14.42h-2.11v-14.42Z"/>
              <path class="cls-7" d="M361.38,440.47l-1.68,5.09h-2.16l5.5-16.2h2.52l5.53,16.2h-2.23l-1.73-5.09h-5.74ZM366.69,438.84l-1.59-4.66c-.36-1.06-.6-2.02-.84-2.96h-.05c-.24.96-.5,1.95-.82,2.93l-1.59,4.69h4.88Z"/>
              <path class="cls-7" d="M373.46,429.37h2.09v14.44h6.92v1.75h-9.01v-16.2Z"/>
              <path class="cls-7" d="M386.89,429.37v6.78h7.83v-6.78h2.11v16.2h-2.11v-7.59h-7.83v7.59h-2.09v-16.2h2.09Z"/>
              <path class="cls-7" d="M408.85,437.97h-6.3v5.84h7.02v1.75h-9.11v-16.2h8.75v1.75h-6.66v5.12h6.3v1.73Z"/>
            </g>
          </g>
        </g>
      </g>
    </g>
  </g>
</svg>