<?xml version="1.0" encoding="UTF-8"?>
<svg xmlns="http://www.w3.org/2000/svg" xmlns:xlink="http://www.w3.org/1999/xlink" viewBox="0 0 596.63 213.23">
  <defs>
    <style>
      .cls-1, .cls-2, .cls-3, .cls-4, .cls-5, .cls-6 {
        stroke-width: 0px;
      }

      .cls-1, .cls-6 {
        fill: #4a567a;
      }

      .cls-2, .cls-4 {
        fill: #27325a;
      }

      .cls-7 {
        isolation: isolate;
      }

      .cls-3 {
        fill: none;
      }

      .cls-4 {
        mix-blend-mode: multiply;
        opacity: .65;
      }

      .cls-5 {
        fill: #fff;
      }

      .cls-6 {
        mix-blend-mode: screen;
        opacity: .5;
      }

      .cls-8 {
        clip-path: url(#clippath);
      }
    </style>
    <clipPath id="clippath">
      <circle class="cls-3" cx="88.83" cy="76.68" r="45.94" transform="translate(1.88 155.47) rotate(-82.98)"/>
    </clipPath>
  </defs>
  <g class="cls-7">
    <g id="TEXTS">
      <g>
        <g>
          <path class="cls-5" d="M156.81,69.08c-.11-1.01-.24-2.03-.4-3.02-.85-5.52,1.02-11.2,4.92-15.12l-4.98-11.14c-.33.02-.66.03-.99.03-5.26,0-10.21-2.35-13.58-6.46-.64-.78-1.3-1.56-1.98-2.31-3.75-4.18-5.28-9.98-4.13-15.41l-10.24-6.63c-2.97,2.17-6.59,3.36-10.33,3.36-1.83,0-3.64-.28-5.39-.84-.96-.31-1.95-.6-2.92-.86-5.42-1.46-9.85-5.5-11.85-10.68h-12.21c-1.99,5.18-6.42,9.21-11.84,10.68l-.16.04c-1.53.42-3.12.63-4.71.63-3.99,0-7.82-1.34-10.92-3.81l-10.51,6.21c.93,5.47-.84,11.2-4.76,15.23-.71.73-1.41,1.47-2.08,2.23-3.35,3.75-8.13,5.91-13.12,5.91-.57,0-1.15-.03-1.72-.09l-5.44,10.9c3.75,4.06,5.39,9.77,4.3,15.2-.22,1.09-.42,2.2-.58,3.32-.82,5.48-4.32,10.28-9.25,12.81l1.37,12.09c5.42,1.35,9.8,5.16,11.88,10.42.41,1.04.85,2.08,1.31,3.1,2.29,5.05,1.96,10.99-.8,15.79l7.73,9.41c1.79-.6,3.65-.91,5.55-.91,3.68,0,7.22,1.14,10.24,3.28.82.58,1.67,1.16,2.52,1.71,4.71,3.04,7.7,8.23,8.02,13.76l11.61,3.7c3.28-4.16,8.29-6.6,13.65-6.6.27,0,.54,0,.8.02,1.01.05,2.01.07,2.97.07h.14c5.61,0,10.95,2.72,14.23,7.18l11.78-3.22c.55-5.51,3.75-10.57,8.58-13.41.87-.51,1.74-1.05,2.59-1.6,2.88-1.88,6.22-2.87,9.64-2.87,2.12,0,4.25.4,6.23,1.15l8.13-9.1c-2.54-4.93-2.59-10.92-.08-15.94.45-.91.89-1.83,1.3-2.75,2.29-5.13,6.95-8.89,12.36-10.05l1.87-12.05c-4.83-2.76-8.13-7.77-8.74-13.36ZM120.74,23.58c1.98,0,3.58,1.6,3.58,3.58s-1.6,3.58-3.58,3.58-3.58-1.6-3.58-3.58,1.6-3.58,3.58-3.58ZM86.03,15.04c1.66-1.08,3.87-.61,4.95,1.05,1.08,1.66.61,3.87-1.05,4.95-1.66,1.08-3.87.61-4.95-1.05-1.08-1.66-.61-3.87,1.05-4.95ZM56.31,24.14c.94-1.74,3.11-2.39,4.85-1.45,1.74.94,2.39,3.11,1.45,4.85-.94,1.74-3.11,2.39-4.85,1.45-1.74-.94-2.39-3.11-1.45-4.85ZM31.73,86.97c-1.55,1.22-3.8.95-5.02-.61-1.22-1.55-.95-3.8.61-5.02,1.55-1.22,3.8-.95,5.02.61,1.22,1.55.95,3.8-.61,5.02ZM36.09,54.1c-1.97.17-3.7-1.29-3.87-3.26-.17-1.97,1.29-3.7,3.26-3.87,1.97-.17,3.7,1.29,3.87,3.26.17,1.97-1.29,3.7-3.26,3.87ZM45.57,116.27c-.66,1.86-2.7,2.84-4.56,2.18s-2.84-2.7-2.18-4.56c.66-1.86,2.7-2.84,4.56-2.18,1.86.66,2.84,2.7,2.18,4.56ZM72.56,138.52c-1.91.52-3.87-.61-4.39-2.52-.52-1.91.61-3.87,2.52-4.39,1.91-.52,3.87.61,4.39,2.52.52,1.91-.61,3.87-2.52,4.39ZM106.56,138.2c-1.36,1.43-3.62,1.5-5.06.14-1.43-1.36-1.5-3.62-.14-5.06,1.36-1.43,3.62-1.5,5.06-.14,1.43,1.36,1.5,3.62.14,5.06ZM88.83,122.62c-25.37,0-45.94-20.57-45.94-45.94s20.57-45.94,45.94-45.94,45.94,20.57,45.94,45.94-20.57,45.94-45.94,45.94ZM137.11,118.31c-.33,1.95-2.18,3.25-4.13,2.92-1.95-.33-3.26-2.18-2.92-4.13.33-1.95,2.18-3.26,4.13-2.92,1.95.33,3.25,2.18,2.92,4.13ZM141.01,55.01c-1.67-1.06-2.17-3.27-1.11-4.94,1.06-1.67,3.27-2.17,4.94-1.11,1.67,1.06,2.17,3.27,1.11,4.94-1.06,1.67-3.27,2.17-4.94,1.11ZM149.66,89.53c-1.81.8-3.92,0-4.72-1.82-.8-1.81.01-3.92,1.82-4.72,1.81-.8,3.92,0,4.72,1.82.8,1.81-.01,3.92-1.82,4.72Z"/>
          <g>
            <path class="cls-2" d="M159.68,90.41c9.84,0,17.82-7.98,17.82-17.82,0-9.84-7.98-17.82-17.82-17.82-5.93,0-11.18,2.9-14.42,7.36H38.42c-2.37-7.45-10.29-12.2-18.36-10.1l-13.95,3.63C2.51,56.6,0,59.85,0,63.56v.09s24,0,24,0c3.47,5.45,3.47,12.42,0,17.87H0s0,.09,0,.09c0,3.72,2.51,6.97,6.11,7.91l13.95,3.63c8.08,2.1,15.99-2.65,18.36-10.1h106.83c3.24,4.46,8.49,7.36,14.42,7.36ZM153.25,83.73l-6.43-11.14,6.43-11.14h12.86s6.43,11.14,6.43,11.14l-6.43,11.14h-12.86Z"/>
            <path class="cls-1" d="M133.25,68.21H44.16c-3.15,0-5.7,2.55-5.7,5.7,0,1.03.3,1.99.78,2.82-1.1-1.04-1.8-2.5-1.8-4.13,0-3.15,2.55-5.7,5.7-5.7h89.09c2.11,0,3.94,1.16,4.92,2.87-1.02-.96-2.39-1.56-3.9-1.56Z"/>
          </g>
          <g class="cls-8">
            <g>
              <g>
                <g>
                  <polygon class="cls-2" points="49.84 88.04 64.01 103.32 76.57 110.96 106.83 110.96 114.82 103.96 119.71 75.59 49.84 88.04"/>
                  <polygon class="cls-4" points="54.69 87.17 66.06 93.28 84.78 91.77 91.77 97.64 92.7 106.3 95.12 97.45 91.77 90.65 108.26 88.41 117.3 89.59 119.71 75.59 54.69 87.17"/>
                </g>
                <g>
                  <g>
                    <g>
                      <polygon class="cls-1" points="108.46 53.03 123.05 55.18 123.73 71.77 106.83 69.78 108.46 53.03"/>
                      <polygon class="cls-2" points="123.73 71.77 112.93 84.92 103.62 84.25 106.83 69.78 123.73 71.77"/>
                      <polygon class="cls-2" points="108.46 53.03 116.74 54.25 115.15 70.84 106.83 69.78 108.46 53.03"/>
                      <polygon class="cls-4" points="115.15 70.84 106.31 84.44 103.62 84.25 106.83 69.78 115.15 70.84"/>
                    </g>
                    <g>
                      <polygon class="cls-1" points="77.14 50.02 58.47 51.51 59.86 71.36 77.61 70.34 77.14 50.02"/>
                      <polygon class="cls-2" points="59.86 71.36 69.52 88.04 80.03 88.04 77.61 70.34 59.86 71.36"/>
                      <polygon class="cls-2" points="77.14 50.02 77.61 70.34 74.06 70.54 72.68 50.38 77.14 50.02"/>
                      <polygon class="cls-4" points="74.06 70.54 77.24 88.04 80.03 88.04 77.61 70.34 74.06 70.54"/>
                    </g>
                    <g>
                      <polygon class="cls-1" points="95.59 50.02 114.26 51.41 112.88 69.93 95.12 68.97 95.59 50.02"/>
                      <polygon class="cls-2" points="112.88 69.93 103.22 85.49 92.7 85.49 95.12 68.97 112.88 69.93"/>
                      <polygon class="cls-2" points="95.59 50.02 95.12 68.97 99.13 69.19 100.81 50.41 95.59 50.02"/>
                      <polygon class="cls-4" points="95.12 68.97 99.13 69.19 95.78 85.49 92.7 85.49 95.12 68.97"/>
                    </g>
                    <polygon class="cls-1" points="97.72 47.6 75.18 47.6 76.57 67.45 96.33 67.45 97.72 47.6"/>
                    <polygon class="cls-2" points="76.57 67.45 79.5 86.17 93.4 86.17 96.33 67.45 76.57 67.45"/>
                  </g>
                  <g>
                    <polygon class="cls-1" points="55.43 76.81 92.7 73.88 91.77 88.04 68.04 90.65 49.84 88.04 55.43 76.81"/>
                    <polygon class="cls-6" points="88.3 74.22 87.67 83.66 80.96 83.66 81.46 74.76 88.3 74.22"/>
                    <polygon class="cls-2" points="91.77 88.04 68.04 89.11 57.06 83.66 60.65 88.6 49.84 88.04 68.04 90.65 91.77 88.04"/>
                  </g>
                </g>
              </g>
              <polygon class="cls-2" points="72.68 106.3 62.77 213.23 115.28 213.23 109.39 106.07 72.68 106.3"/>
            </g>
          </g>
        </g>
        <g>
          <g>
            <path class="cls-5" d="M577.16,101.07c3.13,0,5.67-2.54,5.67-5.67,0-3.13-2.54-5.67-5.67-5.67-1.89,0-3.56.92-4.59,2.34H224.2c-.76-2.37-3.27-3.88-5.84-3.21l-4.44,1.15c-1.15.3-1.94,1.33-1.94,2.52v.03s7.63,0,7.63,0c1.1,1.73,1.1,3.95,0,5.69h-7.63s0,.03,0,.03c0,1.18.8,2.22,1.94,2.52l4.44,1.15c2.57.67,5.09-.84,5.84-3.21h348.37c1.03,1.42,2.7,2.34,4.59,2.34ZM575.11,98.95l-2.05-3.54,2.05-3.54h4.09s2.05,3.54,2.05,3.54l-2.05,3.54h-4.09Z"/>
            <path class="cls-1" d="M569.6,94.01H226.02c-1,0-1.81.81-1.81,1.81,0,.33.09.63.25.9-.35-.33-.57-.8-.57-1.32,0-1,.81-1.81,1.81-1.81h343.58c.67,0,1.25.37,1.57.91-.32-.31-.76-.5-1.24-.5Z"/>
          </g>
          <g>
            <path class="cls-5" d="M238.73,78.48c0,.88.2,1.66.61,2.34.41.68,1.23,1.14,2.47,1.39,1.24.25,1.97.5,2.21.76.24.26.36.57.36.94,0,.39-.17.72-.5.99-.33.27-.81.4-1.43.4-.47,0-1.39-.1-2.74-.31-1.35-.21-2.48-.31-3.38-.31-.6,0-1.68.1-3.22.31-1.55.2-2.65.31-3.32.31-1.38,0-2.06-.51-2.06-1.52,0-.5.15-.82.45-.99.3-.16.77-.27,1.42-.34,1.57-.17,2.56-.47,2.96-.89.4-.42.6-1.4.6-2.95v-27.68c0-1.18-.06-1.77-.17-1.77-.16,0-.52.57-1.09,1.71l-5,9.78c-2.09,4.09-3.98,7.71-5.69,10.89-1.71,3.17-2.62,4.88-2.74,5.11s-.25.43-.4.58-.39.23-.71.23c-.54,0-1.02-.42-1.45-1.26l-12.06-23.87c-.56-1.12-.9-1.68-1.03-1.68-.11,0-.16.56-.16,1.68v27.33c0,.8.34,1.46,1.03,1.98s1.36.79,2,.79c1.81,0,2.71.51,2.71,1.53,0,.94-.79,1.4-2.36,1.4-.26,0-.99-.11-2.18-.34-1.19-.23-2.04-.34-2.54-.34-.65,0-1.53.12-2.66.37s-1.93.37-2.41.37c-.69,0-1.25-.18-1.68-.54-.43-.36-.65-.73-.65-1.13s.25-.73.76-1.03c.51-.29,1.09-.44,1.76-.44,2.11,0,3.17-1.24,3.17-3.71v-33.73c0-.88-.28-1.64-.84-2.27-.56-.63-1.36-1.02-2.39-1.16-1.03-.14-1.71-.36-2.03-.66-.32-.3-.48-.68-.48-1.13,0-.32.21-.61.63-.87.42-.26.85-.39,1.28-.39s1.01.09,1.68.27c.67.18,1.21.27,1.62.27s.93-.09,1.55-.27c.62-.18,1.13-.27,1.52-.27.52,0,.93.21,1.24.61.31.41.75,1.23,1.31,2.45l7.34,14.79,6.14,12.3c.26.52.45.78.58.78.15,0,.34-.24.58-.71,6.65-12.49,11.31-21.36,13.98-26.61.8-1.55,1.48-2.53,2.05-2.94.57-.41,1.18-.61,1.82-.61.3,0,.81.04,1.52.13s1.25.13,1.61.13c.34,0,.78-.05,1.31-.16.53-.11.85-.16.98-.16,1.16,0,1.74.47,1.74,1.41,0,.76-.56,1.15-1.68,1.15-.93,0-1.73.33-2.42.98-.69.66-1.11,1.13-1.26,1.42-.15.29-.23.98-.23,2.08v33.08Z"/>
            <path class="cls-5" d="M265.76,83.26c.77,0,1.35-.2,1.76-.61.4-.41.6-.92.6-1.55,0-.57.13-1.02.38-1.36s.56-.51.9-.51.64.16.87.47c.23.32.35.74.35,1.27s.02,1.1.07,1.71c.05.61.07,1.03.07,1.25,0,.62-.09,1.02-.26,1.21-.17.19-.62.28-1.35.28h-18.29c-1.28,0-2.16-.1-2.63-.29-.47-.19-.71-.48-.71-.87,0-.61.43-.92,1.29-.92,1.1,0,1.82-.18,2.15-.53.33-.35.5-.92.5-1.68v-20.68c0-2.23-.04-3.71-.11-4.43s-.26-1.19-.56-1.39c-.3-.2-.9-.31-1.81-.31-.54,0-.96-.1-1.25-.31-.29-.21-.44-.47-.44-.79,0-.29.13-.54.38-.76.26-.22.58-.33.97-.33h17.41c.69,0,1.15.14,1.36.43.21.29.37.71.46,1.27.1.56.15,1.48.15,2.76,0,.59-.25.88-.75.88-.29,0-.54-.09-.76-.26-.22-.17-.46-.62-.72-1.32-.26-.71-.54-1.16-.82-1.35-.28-.2-.6-.3-.96-.3h-6.21c-1.04,0-1.7.15-1.97.44s-.41.74-.41,1.33v4.78c0,1.12.15,1.85.45,2.21.3.35.91.53,1.84.53h6.03c.5,0,.88-.2,1.13-.6.26-.4.39-.85.39-1.34,0-.26.11-.47.32-.64.21-.17.46-.26.75-.26.3,0,.55.1.75.29s.29.47.29.83c0,.32-.05.77-.15,1.36-.1.59-.15,1.08-.15,1.45,0,.57.06,1.17.19,1.8.13.63.19,1.01.19,1.15,0,.35-.11.63-.34.86-.23.23-.49.34-.79.34-.32,0-.58-.14-.79-.42-.21-.28-.32-.66-.32-1.14,0-.57-.15-.98-.45-1.22s-.8-.36-1.5-.36h-5.98c-.54,0-.99.11-1.34.33-.35.22-.52.54-.52.96v14.45c0,.75.19,1.26.58,1.51.38.26,1.05.38,1.98.38h7.79Z"/>
            <path class="cls-5" d="M277.99,58.25c0,.75.26,1.52.78,2.29.52.78,1.84,1.92,3.97,3.44,4.11,2.91,6.85,5.25,8.21,7.03,1.36,1.78,2.03,3.68,2.03,5.7,0,2.86-1.11,5.08-3.32,6.67-2.22,1.59-4.64,2.38-7.28,2.38-1.87,0-3.79-.39-5.75-1.16-1.97-.78-2.95-1.59-2.95-2.45,0-.21.02-.61.07-1.19s.07-1.31.07-2.18c0-.3-.03-.67-.08-1.1-.05-.43-.08-.71-.08-.85,0-.56.33-.84.98-.84.73,0,1.14.56,1.23,1.67.18,1.84.83,3.27,1.94,4.3,1.12,1.03,2.66,1.54,4.63,1.54s3.64-.56,4.94-1.68,1.96-2.58,1.96-4.39c0-1.08-.44-2.23-1.32-3.45-.88-1.22-3.18-3.15-6.91-5.8-1.54-1.08-2.75-2.01-3.63-2.77-.88-.76-1.62-1.66-2.22-2.7s-.89-2.22-.89-3.55c0-2.15.98-3.94,2.93-5.36s4.2-2.12,6.75-2.12c1.45,0,3,.36,4.65,1.07s2.48,1.56,2.48,2.52c0,.14,0,.35-.02.64s-.02.73-.02,1.3c0,.15.03.45.09.88,0,1-.34,1.49-1.03,1.49-.24,0-.48-.12-.72-.35-.24-.23-.35-.48-.35-.75,0-1.47-.5-2.6-1.5-3.39-1-.79-2.22-1.18-3.66-1.18-1.64,0-3.04.45-4.21,1.35-1.17.9-1.76,1.9-1.76,2.98Z"/>
            <path class="cls-5" d="M314.95,52.22c.51,0,.93.54,1.24,1.61.32,1.07.47,2.06.47,2.98s-.3,1.38-.89,1.38c-.21,0-.41-.07-.58-.2-.18-.13-.42-.61-.73-1.43-.31-.82-.77-1.37-1.37-1.66-.61-.29-1.27-.44-1.99-.44-1.02,0-1.76.24-2.22.71-.46.47-.69,1.24-.69,2.31v23.95c0,.36.11.68.33.96.22.28.67.52,1.37.72.69.2,1.12.38,1.27.53.15.15.23.33.23.53,0,.79-.41,1.19-1.24,1.19-.45,0-1.11-.07-1.99-.2-.87-.14-1.52-.2-1.94-.2-.39,0-.96.06-1.71.17s-1.32.17-1.71.17c-.47,0-.86-.11-1.2-.32-.33-.21-.5-.51-.5-.89,0-.18.06-.35.18-.49.12-.15.52-.32,1.2-.52s1.13-.52,1.37-.94c.23-.42.35-.9.35-1.42v-24.19c0-1.46-.98-2.19-2.95-2.19-1.28,0-2.19.29-2.73.86-.33.33-.57.85-.72,1.54-.15.69-.31,1.1-.47,1.23-.16.13-.35.19-.58.19-.24,0-.48-.06-.7-.19-.22-.13-.33-.29-.33-.49,0-1.64.14-2.93.43-3.85s.7-1.39,1.24-1.39h17.57Z"/>
            <path class="cls-5" d="M322.57,56.14c0-1.15-.78-1.77-2.34-1.86-1.08-.06-1.62-.41-1.62-1.05s.62-1.01,1.85-1.01c.59,0,1.23.05,1.94.16s1.31.16,1.81.16c.33,0,1.25-.11,2.75-.32,1.51-.21,2.67-.32,3.48-.32,3.1,0,5.62.8,7.55,2.4,1.94,1.6,2.9,3.68,2.9,6.23,0,1.63-.48,2.98-1.44,4.04-.96,1.06-2.6,2.05-4.94,2.95-.44.17-.66.34-.66.52,0,.12.09.32.27.59.83,1.17,2.39,3.72,4.69,7.63,2.3,3.91,3.52,5.95,3.67,6.13.15.17.55.37,1.2.59.65.22,1.06.44,1.23.65.17.22.26.46.26.73,0,.34-.23.64-.68.88-.45.25-.81.37-1.09.37-.69,0-1.54-.27-2.54-.8s-1.65-.99-1.97-1.37c-.59-.75-2.51-3.82-5.77-9.21-1.52-2.51-2.4-3.93-2.63-4.24-.81-1.17-1.61-1.93-2.4-2.26-.2-.08-.32-.16-.39-.24s-.09-.26-.09-.54c0-.66.39-.98,1.17-.98.07,0,.29.03.63.08.35.05.68.08,1.01.08,1.65,0,3.04-.54,4.15-1.61,1.11-1.07,1.67-2.57,1.67-4.49,0-1.36-.63-2.71-1.88-4.05s-2.98-2.02-5.2-2.02c-.83,0-1.44.09-1.82.28-.38.19-.63.42-.72.7-.1.28-.15.65-.15,1.1v25.36c0,.5.22.9.65,1.21.43.31,1,.46,1.69.46.76,0,1.27.1,1.52.29.26.19.39.48.39.85s-.16.66-.49.9c-.32.24-.81.36-1.46.36-.59,0-1.31-.17-2.16-.51s-1.52-.51-2.02-.51c-.42,0-1.05.16-1.9.49-.84.32-1.5.49-1.99.49-1.38,0-2.08-.43-2.08-1.3,0-.33.11-.57.34-.73.22-.16.79-.24,1.69-.24.54,0,.98-.12,1.33-.36s.52-.54.52-.88v-25.79Z"/>
            <path class="cls-5" d="M365.51,83.26c.77,0,1.35-.2,1.76-.61.4-.41.6-.92.6-1.55,0-.57.13-1.02.38-1.36s.56-.51.9-.51.64.16.87.47c.23.32.35.74.35,1.27s.02,1.1.07,1.71c.05.61.07,1.03.07,1.25,0,.62-.09,1.02-.26,1.21-.17.19-.62.28-1.35.28h-18.29c-1.28,0-2.16-.1-2.63-.29-.47-.19-.71-.48-.71-.87,0-.61.43-.92,1.29-.92,1.1,0,1.82-.18,2.15-.53.33-.35.5-.92.5-1.68v-20.68c0-2.23-.04-3.71-.11-4.43s-.26-1.19-.56-1.39c-.3-.2-.9-.31-1.81-.31-.54,0-.96-.1-1.25-.31-.29-.21-.44-.47-.44-.79,0-.29.13-.54.38-.76.26-.22.58-.33.97-.33h17.41c.69,0,1.15.14,1.36.43.21.29.37.71.46,1.27.1.56.15,1.48.15,2.76,0,.59-.25.88-.75.88-.29,0-.54-.09-.76-.26-.22-.17-.46-.62-.72-1.32-.26-.71-.54-1.16-.82-1.35-.28-.2-.6-.3-.96-.3h-6.21c-1.04,0-1.7.15-1.97.44s-.41.74-.41,1.33v4.78c0,1.12.15,1.85.45,2.21.3.35.91.53,1.84.53h6.03c.5,0,.88-.2,1.13-.6.26-.4.39-.85.39-1.34,0-.26.11-.47.32-.64.21-.17.46-.26.75-.26.3,0,.55.1.75.29s.29.47.29.83c0,.32-.05.77-.15,1.36-.1.59-.15,1.08-.15,1.45,0,.57.06,1.17.19,1.8.13.63.19,1.01.19,1.15,0,.35-.11.63-.34.86-.23.23-.49.34-.79.34-.32,0-.58-.14-.79-.42-.21-.28-.32-.66-.32-1.14,0-.57-.15-.98-.45-1.22s-.8-.36-1.5-.36h-5.98c-.54,0-.99.11-1.34.33-.35.22-.52.54-.52.96v14.45c0,.75.19,1.26.58,1.51.38.26,1.05.38,1.98.38h7.79Z"/>
            <path class="cls-5" d="M417.2,78.48c0,.88.2,1.66.61,2.34.41.68,1.23,1.14,2.47,1.39s1.98.5,2.21.76c.24.26.35.57.35.94,0,.39-.17.72-.5.99-.33.27-.81.4-1.43.4-.47,0-1.39-.1-2.74-.31-1.35-.21-2.48-.31-3.38-.31-.6,0-1.68.1-3.22.31-1.55.2-2.65.31-3.32.31-1.38,0-2.06-.51-2.06-1.52,0-.5.15-.82.45-.99.3-.16.78-.27,1.42-.34,1.57-.17,2.56-.47,2.96-.89.4-.42.6-1.4.6-2.95v-27.68c0-1.18-.06-1.77-.17-1.77-.15,0-.52.57-1.09,1.71l-5,9.78c-2.09,4.09-3.98,7.71-5.69,10.89-1.71,3.17-2.62,4.88-2.74,5.11s-.25.43-.4.58-.39.23-.71.23c-.54,0-1.02-.42-1.45-1.26l-12.06-23.87c-.56-1.12-.9-1.68-1.03-1.68-.11,0-.16.56-.16,1.68v27.33c0,.8.34,1.46,1.03,1.98s1.36.79,2,.79c1.81,0,2.71.51,2.71,1.53,0,.94-.79,1.4-2.36,1.4-.26,0-.99-.11-2.18-.34-1.19-.23-2.04-.34-2.54-.34-.65,0-1.53.12-2.66.37s-1.93.37-2.41.37c-.69,0-1.25-.18-1.68-.54-.43-.36-.65-.73-.65-1.13s.25-.73.76-1.03c.51-.29,1.09-.44,1.76-.44,2.11,0,3.17-1.24,3.17-3.71v-33.73c0-.88-.28-1.64-.84-2.27-.56-.63-1.36-1.02-2.39-1.16-1.03-.14-1.71-.36-2.03-.66-.32-.3-.48-.68-.48-1.13,0-.32.21-.61.63-.87.42-.26.85-.39,1.28-.39s1.01.09,1.68.27c.67.18,1.21.27,1.62.27s.93-.09,1.55-.27c.62-.18,1.13-.27,1.52-.27.52,0,.93.21,1.24.61.31.41.75,1.23,1.31,2.45l7.34,14.79,6.14,12.3c.26.52.45.78.58.78.15,0,.34-.24.58-.71,6.65-12.49,11.31-21.36,13.98-26.61.8-1.55,1.48-2.53,2.05-2.94s1.18-.61,1.82-.61c.3,0,.81.04,1.52.13.71.09,1.25.13,1.61.13.34,0,.78-.05,1.31-.16.53-.11.85-.16.98-.16,1.16,0,1.74.47,1.74,1.41,0,.76-.56,1.15-1.68,1.15-.93,0-1.73.33-2.42.98-.69.66-1.11,1.13-1.26,1.42-.15.29-.23.98-.23,2.08v33.08Z"/>
            <path class="cls-5" d="M443.28,51.57c5.27,0,9.42,1.81,12.43,5.43,3.01,3.62,4.52,7.68,4.52,12.18,0,3.33-.82,6.38-2.45,9.13-1.64,2.76-3.77,4.7-6.4,5.83-2.63,1.13-5.42,1.7-8.38,1.7-4.81,0-8.81-1.67-12-5.02-3.2-3.35-4.79-7.6-4.79-12.75,0-2.7.71-5.37,2.12-8,1.42-2.64,3.42-4.71,6-6.23s5.57-2.27,8.94-2.27ZM443.14,83.69c2.84,0,5.21-.63,7.1-1.88s3.25-2.8,4.07-4.63,1.22-4.28,1.22-7.32c0-5.27-1.1-9.29-3.31-12.08-2.21-2.79-5.19-4.18-8.95-4.18s-6.92,1.43-9.1,4.29-3.28,6.25-3.28,10.18c0,10.42,4.08,15.62,12.25,15.62Z"/>
            <path class="cls-5" d="M481.87,52.22c.51,0,.93.54,1.24,1.61s.47,2.06.47,2.98-.3,1.38-.89,1.38c-.21,0-.41-.07-.58-.2-.18-.13-.42-.61-.73-1.43-.31-.82-.77-1.37-1.37-1.66s-1.27-.44-1.99-.44c-1.02,0-1.76.24-2.22.71s-.69,1.24-.69,2.31v23.95c0,.36.11.68.33.96s.67.52,1.37.72,1.12.38,1.27.53.23.33.23.53c0,.79-.41,1.19-1.24,1.19-.45,0-1.11-.07-1.98-.2-.87-.14-1.52-.2-1.94-.2-.39,0-.96.06-1.71.17-.75.11-1.32.17-1.71.17-.47,0-.87-.11-1.2-.32-.33-.21-.5-.51-.5-.89,0-.18.06-.35.18-.49.12-.15.52-.32,1.2-.52.68-.2,1.13-.52,1.37-.94s.35-.9.35-1.42v-24.19c0-1.46-.98-2.19-2.95-2.19-1.28,0-2.19.29-2.73.86-.33.33-.57.85-.72,1.54-.15.69-.31,1.1-.47,1.23-.16.13-.35.19-.58.19-.24,0-.48-.06-.7-.19-.22-.13-.33-.29-.33-.49,0-1.64.14-2.93.43-3.85s.7-1.39,1.24-1.39h17.57Z"/>
            <path class="cls-5" d="M503.09,51.57c5.27,0,9.42,1.81,12.43,5.43,3.01,3.62,4.52,7.68,4.52,12.18,0,3.33-.82,6.38-2.45,9.13-1.64,2.76-3.77,4.7-6.4,5.83-2.63,1.13-5.42,1.7-8.38,1.7-4.81,0-8.81-1.67-12-5.02-3.2-3.35-4.79-7.6-4.79-12.75,0-2.7.71-5.37,2.12-8,1.42-2.64,3.42-4.71,6-6.23s5.57-2.27,8.94-2.27ZM502.96,83.69c2.84,0,5.21-.63,7.1-1.88s3.25-2.8,4.07-4.63,1.22-4.28,1.22-7.32c0-5.27-1.1-9.29-3.31-12.08-2.21-2.79-5.19-4.18-8.95-4.18s-6.92,1.43-9.1,4.29-3.28,6.25-3.28,10.18c0,10.42,4.08,15.62,12.25,15.62Z"/>
            <path class="cls-5" d="M526.47,56.14c0-1.15-.78-1.77-2.34-1.86-1.08-.06-1.62-.41-1.62-1.05s.62-1.01,1.85-1.01c.59,0,1.23.05,1.94.16.71.11,1.31.16,1.81.16.33,0,1.25-.11,2.75-.32s2.67-.32,3.48-.32c3.1,0,5.62.8,7.55,2.4,1.93,1.6,2.9,3.68,2.9,6.23,0,1.63-.48,2.98-1.44,4.04-.96,1.06-2.6,2.05-4.94,2.95-.44.17-.66.34-.66.52,0,.12.09.32.27.59.83,1.17,2.39,3.72,4.69,7.63,2.3,3.91,3.52,5.95,3.67,6.13.15.17.55.37,1.2.59s1.06.44,1.23.65c.17.22.26.46.26.73,0,.34-.23.64-.68.88-.45.25-.82.37-1.09.37-.7,0-1.54-.27-2.54-.8s-1.65-.99-1.97-1.37c-.59-.75-2.51-3.82-5.77-9.21-1.52-2.51-2.4-3.93-2.63-4.24-.81-1.17-1.61-1.93-2.4-2.26-.2-.08-.32-.16-.38-.24s-.09-.26-.09-.54c0-.66.39-.98,1.17-.98.08,0,.29.03.63.08s.68.08,1.01.08c1.65,0,3.04-.54,4.15-1.61,1.11-1.07,1.67-2.57,1.67-4.49,0-1.36-.63-2.71-1.88-4.05s-2.98-2.02-5.2-2.02c-.83,0-1.44.09-1.82.28-.38.19-.62.42-.72.7-.1.28-.15.65-.15,1.1v25.36c0,.5.22.9.65,1.21s1,.46,1.69.46c.76,0,1.26.1,1.52.29.26.19.39.48.39.85s-.16.66-.49.9c-.32.24-.81.36-1.46.36-.59,0-1.31-.17-2.16-.51s-1.52-.51-2.02-.51c-.42,0-1.05.16-1.9.49s-1.5.49-1.99.49c-1.38,0-2.08-.43-2.08-1.3,0-.33.11-.57.34-.73.22-.16.79-.24,1.69-.24.54,0,.98-.12,1.33-.36s.52-.54.52-.88v-25.79Z"/>
            <path class="cls-5" d="M569.41,83.26c.77,0,1.35-.2,1.75-.61.4-.41.6-.92.6-1.55,0-.57.13-1.02.38-1.36s.56-.51.9-.51.64.16.87.47.35.74.35,1.27.02,1.1.07,1.71c.04.61.07,1.03.07,1.25,0,.62-.09,1.02-.26,1.21-.17.19-.62.28-1.35.28h-18.29c-1.28,0-2.16-.1-2.63-.29-.48-.19-.71-.48-.71-.87,0-.61.43-.92,1.29-.92,1.1,0,1.82-.18,2.15-.53.33-.35.5-.92.5-1.68v-20.68c0-2.23-.04-3.71-.11-4.43-.08-.72-.26-1.19-.57-1.39-.3-.2-.9-.31-1.81-.31-.54,0-.96-.1-1.25-.31-.29-.21-.44-.47-.44-.79,0-.29.13-.54.38-.76.26-.22.58-.33.97-.33h17.41c.69,0,1.14.14,1.36.43.21.29.37.71.46,1.27.1.56.15,1.48.15,2.76,0,.59-.25.88-.75.88-.29,0-.54-.09-.76-.26-.22-.17-.46-.62-.72-1.32-.26-.71-.54-1.16-.82-1.35s-.6-.3-.96-.3h-6.21c-1.04,0-1.7.15-1.97.44-.27.29-.41.74-.41,1.33v4.78c0,1.12.15,1.85.45,2.21.3.35.91.53,1.83.53h6.03c.5,0,.88-.2,1.13-.6.26-.4.39-.85.39-1.34,0-.26.1-.47.32-.64.21-.17.46-.26.75-.26s.55.1.75.29c.2.2.29.47.29.83,0,.32-.05.77-.15,1.36-.1.59-.15,1.08-.15,1.45,0,.57.06,1.17.19,1.8s.19,1.01.19,1.15c0,.35-.11.63-.34.86-.23.23-.49.34-.79.34-.32,0-.58-.14-.79-.42-.21-.28-.32-.66-.32-1.14,0-.57-.15-.98-.45-1.22s-.8-.36-1.5-.36h-5.98c-.54,0-.99.11-1.34.33-.35.22-.52.54-.52.96v14.45c0,.75.19,1.26.58,1.51s1.05.38,1.98.38h7.79Z"/>
            <path class="cls-5" d="M581.65,58.25c0,.75.26,1.52.78,2.29.52.78,1.84,1.92,3.97,3.44,4.11,2.91,6.85,5.25,8.21,7.03,1.36,1.78,2.03,3.68,2.03,5.7,0,2.86-1.11,5.08-3.32,6.67-2.21,1.59-4.64,2.38-7.28,2.38-1.87,0-3.79-.39-5.75-1.16-1.97-.78-2.95-1.59-2.95-2.45,0-.21.02-.61.07-1.19s.07-1.31.07-2.18c0-.3-.03-.67-.08-1.1s-.08-.71-.08-.85c0-.56.33-.84.99-.84.73,0,1.14.56,1.23,1.67.18,1.84.83,3.27,1.94,4.3,1.12,1.03,2.66,1.54,4.63,1.54s3.64-.56,4.94-1.68c1.3-1.12,1.96-2.58,1.96-4.39,0-1.08-.44-2.23-1.32-3.45-.88-1.22-3.18-3.15-6.91-5.8-1.54-1.08-2.75-2.01-3.63-2.77-.88-.76-1.62-1.66-2.21-2.7-.6-1.04-.89-2.22-.89-3.55,0-2.15.98-3.94,2.93-5.36s4.2-2.12,6.75-2.12c1.45,0,3,.36,4.65,1.07,1.65.72,2.48,1.56,2.48,2.52,0,.14,0,.35-.02.64s-.02.73-.02,1.3c0,.15.03.45.09.88,0,1-.34,1.49-1.03,1.49-.24,0-.48-.12-.72-.35-.24-.23-.35-.48-.35-.75,0-1.47-.5-2.6-1.5-3.39-1-.79-2.22-1.18-3.66-1.18-1.64,0-3.04.45-4.21,1.35-1.17.9-1.76,1.9-1.76,2.98Z"/>
          </g>
          <g>
            <path class="cls-5" d="M261.29,113.29h-7.64v7.09h8.51v2.13h-11.05v-19.65h10.61v2.13h-8.08v6.21h7.64v2.1Z"/>
            <path class="cls-5" d="M272.32,122.5l-1.76-3.04c-.71-1.16-1.16-1.92-1.59-2.72h-.04c-.39.8-.78,1.53-1.49,2.74l-1.65,3.02h-2.04l4.21-6.96-4.04-6.8h2.06l1.82,3.23c.51.9.9,1.59,1.27,2.33h.06c.39-.82.73-1.45,1.25-2.33l1.88-3.23h2.04l-4.19,6.7,4.29,7.06h-2.06Z"/>
            <path class="cls-5" d="M285.47,122.06c-.65.33-1.96.65-3.63.65-3.88,0-6.8-2.45-6.8-6.96s2.92-7.23,7.19-7.23c1.72,0,2.8.37,3.27.61l-.43,1.45c-.67-.33-1.63-.57-2.78-.57-3.23,0-5.37,2.06-5.37,5.68,0,3.37,1.94,5.53,5.29,5.53,1.08,0,2.18-.22,2.9-.57l.37,1.41Z"/>
            <path class="cls-5" d="M294.82,116.05h-5.35v4.96h5.96v1.49h-7.74v-13.76h7.43v1.49h-5.66v4.35h5.35v1.47Z"/>
            <path class="cls-5" d="M297.73,108.74h1.78v12.27h5.88v1.49h-7.66v-13.76Z"/>
            <path class="cls-5" d="M314.49,116.05h-5.35v4.96h5.96v1.49h-7.74v-13.76h7.43v1.49h-5.66v4.35h5.35v1.47ZM311.74,105.68l2.14,2.33h-1.51l-1.31-1.41h-.04l-1.29,1.41h-1.47l2.1-2.33h1.37Z"/>
            <path class="cls-5" d="M317.41,122.5v-13.76h1.94l4.41,6.96c1.02,1.61,1.82,3.06,2.47,4.47l.04-.02c-.16-1.84-.2-3.51-.2-5.66v-5.76h1.67v13.76h-1.8l-4.37-6.98c-.96-1.53-1.88-3.1-2.57-4.59l-.06.02c.1,1.74.14,3.39.14,5.68v5.88h-1.67Z"/>
            <path class="cls-5" d="M340.45,122.06c-.65.33-1.96.65-3.63.65-3.88,0-6.8-2.45-6.8-6.96s2.92-7.23,7.19-7.23c1.72,0,2.8.37,3.27.61l-.43,1.45c-.67-.33-1.63-.57-2.78-.57-3.23,0-5.37,2.06-5.37,5.68,0,3.37,1.94,5.53,5.29,5.53,1.08,0,2.18-.22,2.9-.57l.37,1.41Z"/>
            <path class="cls-5" d="M344.45,108.74v13.76h-1.78v-13.76h1.78Z"/>
            <path class="cls-5" d="M349.78,118.18l-1.43,4.33h-1.84l4.68-13.76h2.14l4.7,13.76h-1.9l-1.47-4.33h-4.88ZM354.29,116.79l-1.35-3.96c-.31-.9-.51-1.71-.71-2.51h-.04c-.2.82-.43,1.65-.69,2.49l-1.35,3.98h4.14Z"/>
            <path class="cls-5" d="M373.35,116.05h-5.35v4.96h5.96v1.49h-7.74v-13.76h7.43v1.49h-5.66v4.35h5.35v1.47Z"/>
            <path class="cls-5" d="M387.87,116.46c-.1-1.92-.22-4.23-.2-5.94h-.06c-.47,1.61-1.04,3.33-1.74,5.23l-2.43,6.68h-1.35l-2.23-6.55c-.65-1.94-1.2-3.71-1.59-5.35h-.04c-.04,1.71-.14,4.02-.27,6.08l-.37,5.9h-1.69l.96-13.76h2.27l2.35,6.66c.57,1.69,1.04,3.21,1.39,4.63h.06c.35-1.39.84-2.9,1.45-4.63l2.45-6.66h2.27l.86,13.76h-1.74l-.35-6.04Z"/>
            <path class="cls-5" d="M413.26,121.86c-.93.47-2.8.93-5.19.93-5.54,0-9.71-3.5-9.71-9.94s4.17-10.32,10.26-10.32c2.45,0,4,.53,4.67.88l-.61,2.07c-.96-.47-2.33-.82-3.97-.82-4.61,0-7.67,2.95-7.67,8.11,0,4.81,2.77,7.9,7.55,7.9,1.54,0,3.12-.32,4.14-.82l.52,2.01Z"/>
            <path class="cls-5" d="M418,118.18l-1.43,4.33h-1.84l4.67-13.76h2.14l4.7,13.76h-1.9l-1.47-4.33h-4.88ZM422.51,116.79l-1.35-3.96c-.31-.9-.51-1.71-.71-2.51h-.04c-.2.82-.43,1.65-.69,2.49l-1.35,3.98h4.14Z"/>
            <path class="cls-5" d="M428.26,108.93c1.08-.16,2.37-.29,3.78-.29,2.55,0,4.37.59,5.57,1.71,1.22,1.12,1.94,2.71,1.94,4.94s-.69,4.08-1.98,5.35c-1.29,1.29-3.41,1.98-6.08,1.98-1.27,0-2.33-.06-3.23-.16v-13.54ZM430.04,121.1c.45.08,1.1.1,1.8.1,3.8,0,5.86-2.12,5.86-5.84.02-3.25-1.82-5.31-5.57-5.31-.92,0-1.61.08-2.08.18v10.86Z"/>
            <path class="cls-5" d="M443.8,118.18l-1.43,4.33h-1.84l4.67-13.76h2.14l4.7,13.76h-1.9l-1.47-4.33h-4.88ZM448.31,116.79l-1.35-3.96c-.31-.9-.51-1.71-.71-2.51h-.04c-.2.82-.43,1.65-.69,2.49l-1.35,3.98h4.14Z"/>
            <path class="cls-5" d="M460.91,103.11c1.55-.23,3.38-.41,5.39-.41,3.65,0,6.24.85,7.96,2.45,1.75,1.6,2.77,3.88,2.77,7.06s-.99,5.83-2.83,7.64c-1.84,1.84-4.87,2.83-8.69,2.83-1.81,0-3.32-.09-4.61-.23v-19.33ZM463.45,120.49c.64.12,1.57.15,2.57.15,5.42,0,8.37-3.03,8.37-8.34.03-4.64-2.59-7.58-7.96-7.58-1.31,0-2.3.12-2.97.26v15.51Z"/>
            <path class="cls-5" d="M486.79,116.05h-5.35v4.96h5.96v1.49h-7.74v-13.76h7.43v1.49h-5.66v4.35h5.35v1.47Z"/>
            <path class="cls-5" d="M492.65,110.25h-4.19v-1.51h10.19v1.51h-4.21v12.25h-1.8v-12.25Z"/>
            <path class="cls-5" d="M500.87,118.18l-1.43,4.33h-1.84l4.67-13.76h2.14l4.7,13.76h-1.9l-1.47-4.33h-4.88ZM505.38,116.79l-1.35-3.96c-.31-.9-.51-1.71-.71-2.51h-.04c-.2.82-.43,1.65-.69,2.49l-1.35,3.98h4.14Z"/>
            <path class="cls-5" d="M511.14,108.74h1.78v12.27h5.88v1.49h-7.66v-13.76Z"/>
            <path class="cls-5" d="M522.55,108.74v5.76h6.66v-5.76h1.8v13.76h-1.8v-6.45h-6.66v6.45h-1.78v-13.76h1.78Z"/>
            <path class="cls-5" d="M541.2,116.05h-5.35v4.96h5.96v1.49h-7.74v-13.76h7.43v1.49h-5.66v4.35h5.35v1.47Z"/>
          </g>
        </g>
      </g>
    </g>
  </g>
</svg>