<?xml version="1.0" encoding="utf-8"?>
<!-- Generator: Adobe Illustrator 28.1.0, SVG Export Plug-In . SVG Version: 6.00 Build 0)  -->
<svg version="1.1" id="Camada_1" xmlns="http://www.w3.org/2000/svg" xmlns:xlink="http://www.w3.org/1999/xlink" x="0px" y="0px"
	 viewBox="0 0 936.6 880.93" style="enable-background:new 0 0 936.6 880.93;" xml:space="preserve">
<style type="text/css">
	.st0{fill:#004C95;}
	.st1{fill:#FFFFFF;}
	.st2{fill:#1F305A;}
	.st3{fill:#44567D;}
	.st4{clip-path:url(#SVGID_00000114767224932250485750000016726384530462217366_);}
	.st5{opacity:0.65;fill:#1F305A;}
	.st6{opacity:0.5;fill:#44567D;}
</style>
<g>
	<path class="st0" d="M753.26,288.04c-0.46-4.22-1.02-8.46-1.66-12.6c-3.55-23.03,4.25-46.68,20.5-63.03l-20.79-46.44
		c-1.38,0.08-2.76,0.12-4.14,0.12c-21.95,0-42.59-9.81-56.63-26.93c-2.66-3.24-5.44-6.49-8.27-9.64c-15.64-17.43-22-41.6-17.2-64.25
		L622.38,37.6c-12.4,9.07-27.49,14.01-43.08,14.01c-7.62,0-15.18-1.18-22.48-3.5c-4.02-1.28-8.11-2.49-12.17-3.58
		c-22.6-6.1-41.09-22.92-49.39-44.52h-50.93c-8.3,21.59-26.79,38.41-49.37,44.53l-0.67,0.18c-6.4,1.75-13,2.64-19.62,2.64
		c-16.64,0-32.6-5.61-45.52-15.88l-43.84,25.89c3.86,22.82-3.49,46.72-19.84,63.49c-2.95,3.02-5.86,6.15-8.66,9.28
		c-13.95,15.65-33.89,24.63-54.7,24.63c-2.39,0-4.79-0.12-7.18-0.36l-22.67,45.47c15.65,16.95,22.49,40.73,17.93,63.37
		c-0.91,4.53-1.73,9.18-2.44,13.84c-3.44,22.85-18.03,42.86-38.58,53.42l5.7,50.4c22.6,5.61,40.88,21.54,49.53,43.46
		c1.71,4.33,3.55,8.68,5.47,12.93c9.54,21.07,8.18,45.81-3.32,65.85l32.24,39.26c7.46-2.52,15.22-3.79,23.14-3.79
		c15.35,0,30.11,4.74,42.69,13.69c3.41,2.43,6.94,4.82,10.49,7.12c19.62,12.7,32.09,34.32,33.42,57.39l48.39,15.41
		c13.66-17.33,34.55-27.52,56.91-27.52c1.12,0,2.24,0.03,3.34,0.08c4.2,0.19,8.38,0.29,12.39,0.3l0.6,0
		c23.4,0,45.65,11.35,59.34,29.95l49.13-13.42c2.3-22.98,15.65-44.06,35.77-55.92c3.62-2.13,7.24-4.38,10.78-6.69
		c12.02-7.84,25.93-11.98,40.2-11.98c8.85,0,17.72,1.65,25.98,4.8l33.89-37.94c-10.58-20.57-10.81-45.55-0.33-66.48
		c1.89-3.79,3.72-7.64,5.42-11.46c9.54-21.4,28.99-37.06,51.56-41.91l7.81-50.26C769.59,332.24,755.8,311.35,753.26,288.04z
		 M602.87,98.32c8.24,0,14.92,6.68,14.92,14.92c0,8.24-6.68,14.92-14.92,14.92c-8.24,0-14.92-6.68-14.92-14.92
		C587.96,105,594.63,98.32,602.87,98.32z M458.11,62.73c6.91-4.49,16.15-2.53,20.64,4.37c4.49,6.91,2.53,16.15-4.37,20.64
		c-6.91,4.49-16.15,2.53-20.64-4.37C449.24,76.46,451.2,67.22,458.11,62.73z M334.17,100.66c3.91-7.25,12.96-9.96,20.21-6.05
		c7.25,3.91,9.96,12.96,6.05,20.21c-3.91,7.25-12.96,9.96-20.21,6.05C332.97,116.96,330.26,107.91,334.17,100.66z M231.7,362.66
		c-6.48,5.09-15.86,3.96-20.94-2.52c-5.09-6.48-3.96-15.86,2.52-20.94c6.48-5.09,15.86-3.96,20.94,2.52
		C239.31,348.19,238.18,357.57,231.7,362.66z M249.88,225.57c-8.21,0.7-15.43-5.38-16.14-13.59c-0.7-8.21,5.38-15.43,13.59-16.14
		c8.21-0.7,15.43,5.38,16.14,13.59C264.18,217.64,258.09,224.87,249.88,225.57z M289.41,484.82c-2.74,7.77-11.26,11.85-19.03,9.11
		c-7.77-2.74-11.85-11.26-9.11-19.03c2.74-7.77,11.26-11.85,19.03-9.11C288.07,468.53,292.15,477.05,289.41,484.82z M401.95,577.61
		c-7.95,2.16-16.15-2.54-18.3-10.49c-2.16-7.95,2.54-16.15,10.49-18.3c7.95-2.16,16.15,2.54,18.3,10.49
		C414.6,567.26,409.9,575.45,401.95,577.61z M543.73,576.29c-5.66,5.98-15.11,6.24-21.09,0.57c-5.98-5.66-6.24-15.11-0.57-21.09
		c5.66-5.98,15.11-6.24,21.09-0.57C549.14,560.86,549.4,570.3,543.73,576.29z M469.79,511.31c-105.81,0-191.58-85.77-191.58-191.58
		c0-105.81,85.77-191.58,191.58-191.58c105.81,0,191.58,85.77,191.58,191.58C661.37,425.54,575.6,511.31,469.79,511.31z
		 M671.1,493.32c-1.39,8.12-9.1,13.57-17.22,12.18c-8.12-1.39-13.57-9.1-12.18-17.22c1.39-8.12,9.1-13.57,17.22-12.18
		C667.04,477.49,672.49,485.2,671.1,493.32z M687.38,229.37c-6.96-4.4-9.04-13.62-4.63-20.58c4.4-6.96,13.62-9.04,20.58-4.63
		c6.96,4.4,9.04,13.62,4.63,20.58C703.56,231.71,694.34,233.78,687.38,229.37z M723.44,373.32c-7.53,3.35-16.34-0.04-19.69-7.57
		c-3.35-7.53,0.04-16.34,7.57-19.69c7.53-3.35,16.34,0.04,19.69,7.57C734.36,361.15,730.97,369.97,723.44,373.32z"/>
	<g>
		<path class="st1" d="M765.22,217.94c-25.21,0-49.21,11.38-65.24,30.68H266.81c-11.68-26.37-38.46-44.21-67.64-44.21
			c-6.28,0-12.6,0.81-18.76,2.42l-58.17,15.14c-19.62,5.11-33.31,22.83-33.31,43.1v75.29c0,20.27,13.7,37.99,33.32,43.09
			l58.17,15.14c6.17,1.6,12.48,2.42,18.76,2.42c29.17,0,55.96-17.84,67.64-44.21h433.17c16.03,19.3,40.04,30.68,65.24,30.68
			c46.74,0,84.76-38.03,84.76-84.76C849.98,255.96,811.96,217.94,765.22,217.94z"/>
		<g>
			<path class="st2" d="M765.22,377.01c41.04,0,74.3-33.27,74.3-74.3c0-41.04-33.27-74.3-74.3-74.3
				c-24.73,0-46.63,12.09-60.13,30.68l-445.48,0c-9.9-31.06-42.89-50.89-76.56-42.13l-58.17,15.14
				c-15.01,3.91-25.49,17.46-25.49,32.97l0,0.39l100.07,0c14.45,22.74,14.45,51.78,0,74.52l-100.07,0l0,0.39
				c0,15.51,10.48,29.06,25.49,32.97l58.17,15.14c33.67,8.76,66.66-11.07,76.56-42.13l445.48,0
				C718.59,364.91,740.49,377,765.22,377.01z M738.4,349.16l-26.82-46.45l26.82-46.45l53.64,0l26.82,46.45l-26.82,46.45
				L738.4,349.16z"/>
			<path class="st3" d="M655.03,284.42l-371.5,0c-13.12,0-23.75,10.63-23.75,23.75c0,4.31,1.23,8.29,3.24,11.77
				c-4.59-4.33-7.5-10.43-7.5-17.24c0-13.12,10.63-23.75,23.75-23.75l371.5,0c8.81,0,16.41,4.85,20.52,11.98
				C667.03,286.92,661.33,284.42,655.03,284.42z"/>
		</g>
	</g>
	<g>
		<defs>
			
				<ellipse id="SVGID_1_" transform="matrix(0.7071 -0.7071 0.7071 0.7071 -88.483 425.8396)" cx="469.79" cy="319.73" rx="191.58" ry="191.58"/>
		</defs>
		<clipPath id="SVGID_00000061430754122792720950000017214069335302556571_">
			<use xlink:href="#SVGID_1_"  style="overflow:visible;"/>
		</clipPath>
		<g style="clip-path:url(#SVGID_00000061430754122792720950000017214069335302556571_);">
			<g>
				<g>
					<polygon class="st2" points="307.22,367.11 366.28,430.83 418.67,462.69 544.83,462.69 578.19,433.52 598.55,315.21 					"/>
					<polygon class="st5" points="327.45,363.5 374.83,388.95 452.88,382.65 482.06,407.13 485.94,443.26 496.03,406.35 
						482.06,377.99 550.83,368.66 588.5,373.57 598.55,315.21 					"/>
				</g>
				<g>
					<g>
						<g>
							<polygon class="st3" points="551.66,221.11 612.47,230.11 615.32,299.26 544.83,290.96 							"/>
							<polygon class="st2" points="615.32,299.26 570.29,354.12 531.46,351.3 544.83,290.96 							"/>
							<polygon class="st2" points="551.66,221.11 586.16,226.22 579.56,295.37 544.83,290.96 							"/>
							<polygon class="st5" points="579.56,295.37 542.69,352.12 531.46,351.3 544.83,290.96 							"/>
						</g>
						<g>
							<polygon class="st3" points="421.06,208.59 343.21,214.81 348.99,297.56 423.02,293.29 							"/>
							<polygon class="st2" points="348.99,297.56 389.26,367.11 433.1,367.11 423.02,293.29 							"/>
							<polygon class="st2" points="421.06,208.59 423.02,293.29 408.22,294.14 402.47,210.08 							"/>
							<polygon class="st5" points="408.22,294.14 421.45,367.11 433.1,367.11 423.02,293.29 							"/>
						</g>
						<g>
							<polygon class="st3" points="497.99,208.59 575.84,214.39 570.06,291.6 496.03,287.62 							"/>
							<polygon class="st2" points="570.06,291.6 529.79,356.49 485.94,356.49 496.03,287.62 							"/>
							<polygon class="st2" points="497.99,208.59 496.03,287.62 512.76,288.52 519.74,210.21 							"/>
							<polygon class="st5" points="496.03,287.62 512.76,288.52 498.77,356.49 485.94,356.49 							"/>
						</g>
						<polygon class="st3" points="506.84,198.49 412.88,198.49 418.67,281.24 501.06,281.24 						"/>
						<polygon class="st2" points="418.67,281.24 430.87,359.34 488.86,359.34 501.06,281.24 						"/>
					</g>
					<g>
						<polygon class="st3" points="330.53,320.29 485.94,308.05 482.06,367.11 383.11,377.99 307.22,367.11 						"/>
						<polygon class="st6" points="467.59,309.5 464.96,348.85 436.99,348.85 439.05,311.75 						"/>
						<polygon class="st2" points="482.06,367.11 383.11,371.58 337.33,348.85 352.29,369.44 307.22,367.11 383.11,377.99 						"/>
					</g>
				</g>
			</g>
			<polygon class="st2" points="402.47,443.26 361.12,889.16 580.08,889.16 555.51,442.3 			"/>
		</g>
	</g>
	<g>
		<g>
			<path class="st2" d="M891.31,830.41c7.28,0,13.18-5.9,13.18-13.18c0-7.28-5.9-13.18-13.18-13.18c-4.39,0-8.27,2.15-10.67,5.44
				l-810.05,0c-1.76-5.51-7.61-9.03-13.58-7.47l-10.32,2.69c-2.66,0.69-4.52,3.1-4.52,5.85l0,0.07l17.75,0
				c2.56,4.03,2.56,9.19,0,13.22H42.17l0,0.07c0,2.75,1.86,5.16,4.52,5.85l10.32,2.69c5.97,1.55,11.83-1.96,13.58-7.47l810.05,0
				C883.04,828.26,886.92,830.41,891.31,830.41z M886.55,825.47l-4.76-8.24l4.76-8.24l9.52,0l4.76,8.24l-4.76,8.24H886.55z"/>
			<path class="st3" d="M873.74,813.98l-798.9,0c-2.33,0-4.21,1.89-4.21,4.21c0,0.76,0.22,1.47,0.57,2.09
				c-0.81-0.77-1.33-1.85-1.33-3.06c0-2.33,1.89-4.21,4.21-4.21l798.9,0c1.56,0,2.91,0.86,3.64,2.13
				C875.87,814.43,874.86,813.98,873.74,813.98z"/>
		</g>
		<g>
			<g>
				<path class="st2" d="M104.38,777.88c0,2.05,0.48,3.86,1.43,5.44c0.95,1.57,2.86,2.65,5.74,3.22c2.88,0.57,4.59,1.16,5.14,1.76
					c0.55,0.6,0.83,1.33,0.83,2.18c0,0.9-0.39,1.66-1.16,2.29c-0.77,0.62-1.89,0.94-3.34,0.94c-1.1,0-3.22-0.24-6.37-0.71
					c-3.15-0.48-5.77-0.71-7.87-0.71c-1.4,0-3.9,0.24-7.49,0.71c-3.6,0.47-6.17,0.71-7.72,0.71c-3.2,0-4.8-1.18-4.8-3.53
					c0-1.15,0.35-1.92,1.05-2.29c0.7-0.37,1.8-0.64,3.3-0.79c3.65-0.4,5.94-1.09,6.87-2.06c0.93-0.97,1.39-3.26,1.39-6.86V713.8
					c0-2.75-0.13-4.13-0.38-4.13c-0.36,0-1.21,1.33-2.54,3.97l-11.62,22.73c-4.85,9.5-9.26,17.94-13.24,25.31
					c-3.97,7.38-6.1,11.34-6.38,11.89c-0.28,0.55-0.59,1-0.94,1.35c-0.35,0.35-0.9,0.52-1.65,0.52c-1.25,0-2.38-0.98-3.38-2.92
					l-28.04-55.5c-1.3-2.6-2.1-3.9-2.4-3.9c-0.25,0-0.38,1.3-0.38,3.9v63.55c0,1.85,0.8,3.39,2.4,4.61s3.15,1.84,4.66,1.84
					c4.21,0,6.31,1.19,6.31,3.57c0,2.18-1.83,3.27-5.48,3.27c-0.6,0-2.29-0.26-5.07-0.79c-2.78-0.53-4.74-0.79-5.89-0.79
					c-1.5,0-3.57,0.29-6.2,0.86c-2.63,0.57-4.49,0.86-5.59,0.86c-1.6,0-2.9-0.42-3.9-1.25c-1-0.84-1.5-1.71-1.5-2.62
					c0-0.91,0.59-1.71,1.76-2.39c1.18-0.68,2.54-1.02,4.09-1.02c4.91,0,7.36-2.87,7.36-8.62v-78.42c0-2.05-0.65-3.81-1.95-5.29
					c-1.3-1.47-3.15-2.38-5.56-2.7c-2.4-0.32-3.98-0.84-4.73-1.54c-0.75-0.7-1.13-1.58-1.13-2.63c0-0.75,0.49-1.43,1.47-2.03
					c0.98-0.6,1.97-0.9,2.97-0.9c1.05,0,2.35,0.21,3.91,0.64c1.55,0.43,2.8,0.64,3.76,0.64s2.15-0.21,3.61-0.64
					c1.45-0.42,2.63-0.64,3.53-0.64c1.2,0,2.17,0.48,2.89,1.43c0.73,0.95,1.74,2.85,3.04,5.71l17.06,34.39l14.28,28.61
					c0.6,1.2,1.05,1.8,1.35,1.8c0.35,0,0.8-0.55,1.35-1.65c15.46-29.04,26.29-49.66,32.5-61.88c1.85-3.6,3.44-5.88,4.76-6.83
					c1.33-0.95,2.74-1.43,4.24-1.43c0.7,0,1.88,0.1,3.53,0.3c1.65,0.2,2.9,0.3,3.75,0.3c0.8,0,1.81-0.12,3.04-0.37
					c1.23-0.25,1.99-0.38,2.29-0.38c2.7,0,4.05,1.09,4.05,3.27c0,1.78-1.3,2.66-3.9,2.66c-2.15,0-4.03,0.76-5.63,2.29
					c-1.6,1.53-2.58,2.62-2.93,3.3c-0.35,0.67-0.53,2.29-0.53,4.83V777.88z"/>
				<path class="st2" d="M167.23,789c1.79,0,3.15-0.47,4.08-1.41c0.93-0.94,1.4-2.14,1.4-3.61c0-1.32,0.3-2.38,0.89-3.16
					c0.6-0.78,1.3-1.18,2.1-1.18c0.81,0,1.48,0.37,2.02,1.1c0.54,0.74,0.81,1.72,0.81,2.94c0,1.23,0.05,2.55,0.16,3.97
					c0.11,1.42,0.16,2.39,0.16,2.92c0,1.44-0.2,2.37-0.6,2.81c-0.4,0.44-1.45,0.66-3.13,0.66H132.6c-2.98,0-5.02-0.23-6.12-0.68
					c-1.1-0.45-1.66-1.13-1.66-2.03c0-1.42,1-2.13,3-2.13c2.56,0,4.22-0.41,4.99-1.24c0.77-0.82,1.16-2.13,1.16-3.92v-48.1
					c0-5.19-0.09-8.62-0.26-10.3c-0.17-1.68-0.61-2.76-1.31-3.23c-0.7-0.47-2.1-0.71-4.21-0.71c-1.26,0-2.23-0.24-2.92-0.72
					c-0.68-0.48-1.03-1.09-1.03-1.83c0-0.67,0.3-1.26,0.89-1.78c0.59-0.51,1.35-0.77,2.26-0.77h40.48c1.61,0,2.66,0.33,3.15,1
					c0.49,0.67,0.85,1.65,1.08,2.95c0.23,1.3,0.34,3.43,0.34,6.41c0,1.37-0.58,2.05-1.73,2.05c-0.67,0-1.25-0.2-1.76-0.61
					c-0.51-0.41-1.07-1.43-1.68-3.07c-0.61-1.64-1.25-2.69-1.9-3.15c-0.65-0.46-1.4-0.69-2.24-0.69H148.7
					c-2.42,0-3.95,0.34-4.58,1.03c-0.63,0.69-0.95,1.71-0.95,3.08v11.12c0,2.6,0.35,4.31,1.05,5.14c0.7,0.82,2.13,1.24,4.27,1.24
					h14.02c1.16,0,2.04-0.46,2.63-1.39c0.6-0.93,0.9-1.97,0.9-3.13c0-0.59,0.25-1.09,0.74-1.5c0.49-0.4,1.07-0.6,1.73-0.6
					c0.7,0,1.28,0.23,1.73,0.68s0.68,1.1,0.68,1.94c0,0.74-0.11,1.79-0.34,3.17c-0.23,1.38-0.34,2.51-0.34,3.38
					c0,1.33,0.15,2.73,0.45,4.19c0.3,1.47,0.45,2.36,0.45,2.67c0,0.8-0.26,1.47-0.79,1.99c-0.53,0.52-1.14,0.79-1.84,0.79
					c-0.74,0-1.35-0.32-1.84-0.97c-0.49-0.65-0.74-1.53-0.74-2.65c0-1.33-0.35-2.28-1.05-2.84c-0.7-0.56-1.86-0.84-3.48-0.84h-13.91
					c-1.26,0-2.3,0.25-3.11,0.76c-0.81,0.51-1.21,1.25-1.21,2.23v33.59c0,1.75,0.45,2.93,1.34,3.52c0.89,0.59,2.43,0.89,4.61,0.89
					H167.23z"/>
				<path class="st2" d="M195.67,730.84c0,1.75,0.6,3.53,1.81,5.33c1.2,1.8,4.28,4.47,9.23,8c9.57,6.76,15.93,12.21,19.08,16.35
					c3.15,4.15,4.73,8.57,4.73,13.26c0,6.65-2.58,11.82-7.73,15.51c-5.15,3.69-10.8,5.54-16.93,5.54c-4.35,0-8.8-0.9-13.38-2.71
					c-4.57-1.81-6.86-3.71-6.86-5.7c0-0.49,0.05-1.41,0.16-2.76s0.16-3.04,0.16-5.07c0-0.7-0.06-1.55-0.18-2.55
					c-0.12-1-0.18-1.66-0.18-1.97c0-1.3,0.76-1.95,2.29-1.95c1.7,0,2.65,1.3,2.86,3.89c0.42,4.28,1.93,7.61,4.52,9.99
					c2.59,2.38,6.18,3.57,10.78,3.57c4.63,0,8.45-1.3,11.49-3.91s4.55-6.01,4.55-10.21c0-2.52-1.02-5.2-3.07-8.03
					c-2.04-2.83-7.4-7.33-16.07-13.49c-3.58-2.52-6.39-4.67-8.44-6.44c-2.05-1.77-3.77-3.86-5.15-6.28s-2.08-5.17-2.08-8.25
					c0-5.01,2.27-9.16,6.81-12.46c4.54-3.29,9.77-4.94,15.69-4.94c3.37,0,6.97,0.83,10.8,2.5c3.84,1.66,5.76,3.62,5.76,5.86
					c0,0.32-0.02,0.82-0.05,1.5c-0.04,0.68-0.05,1.69-0.05,3.02c0,0.35,0.07,1.04,0.21,2.05c0,2.31-0.8,3.47-2.39,3.47
					c-0.57,0-1.13-0.27-1.67-0.81c-0.55-0.54-0.82-1.12-0.82-1.75c0-3.42-1.16-6.05-3.48-7.88c-2.32-1.83-5.16-2.75-8.51-2.75
					c-3.8,0-7.07,1.05-9.79,3.15C197.03,726.02,195.67,728.33,195.67,730.84z"/>
				<path class="st2" d="M281.62,716.82c1.19,0,2.15,1.24,2.89,3.73c0.73,2.49,1.1,4.8,1.1,6.94c0,2.14-0.69,3.21-2.08,3.21
					c-0.5,0-0.95-0.16-1.36-0.47c-0.41-0.31-0.97-1.42-1.69-3.32c-0.72-1.9-1.78-3.19-3.2-3.86c-1.41-0.68-2.96-1.02-4.64-1.02
					c-2.38,0-4.1,0.55-5.16,1.65c-1.06,1.1-1.6,2.89-1.6,5.37v55.69c0,0.84,0.25,1.58,0.76,2.23c0.51,0.65,1.57,1.21,3.18,1.68
					c1.61,0.47,2.59,0.89,2.94,1.24c0.35,0.35,0.53,0.76,0.53,1.22c0,1.84-0.96,2.77-2.88,2.77c-1.05,0-2.59-0.16-4.62-0.47
					c-2.03-0.32-3.53-0.47-4.51-0.47c-0.91,0-2.24,0.13-3.99,0.39c-1.75,0.26-3.08,0.4-3.99,0.4c-1.08,0-2.01-0.25-2.78-0.74
					c-0.77-0.49-1.15-1.19-1.15-2.08c0-0.42,0.14-0.81,0.42-1.14c0.28-0.34,1.21-0.74,2.79-1.21c1.58-0.47,2.64-1.2,3.18-2.18
					c0.54-0.98,0.81-2.08,0.81-3.31v-56.26c0-3.4-2.29-5.1-6.86-5.1c-2.97,0-5.08,0.67-6.34,2.01c-0.77,0.78-1.33,1.97-1.68,3.57
					c-0.35,1.61-0.71,2.56-1.08,2.85c-0.37,0.3-0.82,0.45-1.36,0.45c-0.57,0-1.11-0.15-1.62-0.45c-0.51-0.3-0.77-0.67-0.77-1.13
					c0-3.82,0.33-6.81,1-8.96c0.67-2.15,1.63-3.23,2.89-3.23H281.62z"/>
				<path class="st2" d="M299.33,725.92c0-2.67-1.81-4.11-5.44-4.32c-2.51-0.14-3.76-0.95-3.76-2.44c0-1.56,1.44-2.34,4.31-2.34
					c1.36,0,2.87,0.12,4.52,0.37c1.65,0.25,3.05,0.37,4.2,0.37c0.77,0,2.91-0.25,6.41-0.74c3.5-0.49,6.2-0.74,8.09-0.74
					c7.21,0,13.07,1.86,17.57,5.58c4.5,3.72,6.75,8.55,6.75,14.48c0,3.79-1.11,6.92-3.34,9.4c-2.23,2.47-6.05,4.76-11.49,6.87
					c-1.02,0.39-1.52,0.79-1.52,1.21c0,0.28,0.21,0.74,0.63,1.37c1.93,2.73,5.57,8.65,10.9,17.74c5.34,9.09,8.18,13.84,8.53,14.24
					c0.35,0.4,1.28,0.86,2.79,1.37c1.51,0.51,2.47,1.02,2.87,1.52c0.4,0.5,0.61,1.07,0.61,1.69c0,0.8-0.53,1.48-1.58,2.06
					c-1.05,0.57-1.89,0.86-2.53,0.86c-1.61,0-3.58-0.62-5.9-1.86c-2.32-1.24-3.84-2.3-4.58-3.18c-1.37-1.75-5.84-8.89-13.42-21.42
					c-3.54-5.84-5.58-9.14-6.11-9.87c-1.89-2.73-3.75-4.48-5.58-5.25c-0.46-0.18-0.76-0.36-0.9-0.56c-0.14-0.2-0.21-0.61-0.21-1.25
					c0-1.53,0.91-2.29,2.73-2.29c0.17,0,0.66,0.06,1.47,0.18c0.8,0.12,1.59,0.18,2.36,0.18c3.84,0,7.06-1.25,9.65-3.74
					c2.59-2.49,3.88-5.97,3.88-10.43c0-3.16-1.45-6.3-4.36-9.43c-2.91-3.12-6.94-4.69-12.09-4.69c-1.93,0-3.34,0.22-4.23,0.66
					c-0.89,0.44-1.45,0.98-1.68,1.63c-0.23,0.65-0.34,1.5-0.34,2.55v58.97c0,1.16,0.5,2.1,1.51,2.82c1,0.72,2.32,1.08,3.94,1.08
					c1.76,0,2.94,0.23,3.54,0.68c0.6,0.45,0.9,1.11,0.9,1.98c0,0.83-0.38,1.53-1.13,2.08c-0.75,0.55-1.88,0.83-3.38,0.83
					c-1.36,0-3.03-0.4-5.01-1.18c-1.98-0.79-3.54-1.18-4.7-1.18c-0.98,0-2.45,0.38-4.41,1.13c-1.96,0.75-3.5,1.13-4.62,1.13
					c-3.22,0-4.83-1.01-4.83-3.02c0-0.76,0.26-1.33,0.78-1.69c0.52-0.37,1.83-0.55,3.92-0.55c1.25,0,2.28-0.28,3.08-0.84
					c0.8-0.56,1.2-1.25,1.2-2.06V725.92z"/>
				<path class="st2" d="M399.19,789c1.79,0,3.15-0.47,4.08-1.41c0.93-0.94,1.4-2.14,1.4-3.61c0-1.32,0.3-2.38,0.89-3.16
					c0.6-0.78,1.3-1.18,2.1-1.18s1.48,0.37,2.02,1.1c0.54,0.74,0.81,1.72,0.81,2.94c0,1.23,0.05,2.55,0.16,3.97
					c0.11,1.42,0.16,2.39,0.16,2.92c0,1.44-0.2,2.37-0.6,2.81c-0.4,0.44-1.45,0.66-3.13,0.66h-42.53c-2.98,0-5.02-0.23-6.12-0.68
					c-1.1-0.45-1.66-1.13-1.66-2.03c0-1.42,1-2.13,3-2.13c2.56,0,4.22-0.41,4.99-1.24c0.77-0.82,1.16-2.13,1.16-3.92v-48.1
					c0-5.19-0.09-8.62-0.26-10.3c-0.17-1.68-0.61-2.76-1.31-3.23c-0.7-0.47-2.1-0.71-4.21-0.71c-1.26,0-2.23-0.24-2.92-0.72
					c-0.68-0.48-1.03-1.09-1.03-1.83c0-0.67,0.3-1.26,0.89-1.78c0.59-0.51,1.35-0.77,2.26-0.77h40.48c1.61,0,2.66,0.33,3.15,1
					c0.49,0.67,0.85,1.65,1.08,2.95c0.23,1.3,0.34,3.43,0.34,6.41c0,1.37-0.58,2.05-1.73,2.05c-0.67,0-1.25-0.2-1.76-0.61
					c-0.51-0.41-1.07-1.43-1.68-3.07c-0.61-1.64-1.25-2.69-1.9-3.15c-0.65-0.46-1.4-0.69-2.24-0.69h-14.43
					c-2.42,0-3.95,0.34-4.58,1.03c-0.63,0.69-0.95,1.71-0.95,3.08v11.12c0,2.6,0.35,4.31,1.05,5.14c0.7,0.82,2.13,1.24,4.27,1.24
					h14.02c1.16,0,2.04-0.46,2.63-1.39c0.6-0.93,0.9-1.97,0.9-3.13c0-0.59,0.25-1.09,0.74-1.5c0.49-0.4,1.07-0.6,1.73-0.6
					c0.7,0,1.28,0.23,1.73,0.68c0.46,0.45,0.68,1.1,0.68,1.94c0,0.74-0.11,1.79-0.34,3.17c-0.23,1.38-0.34,2.51-0.34,3.38
					c0,1.33,0.15,2.73,0.45,4.19c0.3,1.47,0.45,2.36,0.45,2.67c0,0.8-0.26,1.47-0.79,1.99c-0.53,0.52-1.14,0.79-1.84,0.79
					c-0.74,0-1.35-0.32-1.84-0.97c-0.49-0.65-0.74-1.53-0.74-2.65c0-1.33-0.35-2.28-1.05-2.84s-1.86-0.84-3.48-0.84h-13.91
					c-1.26,0-2.3,0.25-3.11,0.76c-0.81,0.51-1.21,1.25-1.21,2.23v33.59c0,1.75,0.45,2.93,1.34,3.52c0.89,0.59,2.43,0.89,4.61,0.89
					H399.19z"/>
				<path class="st2" d="M519.36,777.88c0,2.05,0.47,3.86,1.43,5.44c0.95,1.57,2.87,2.65,5.74,3.22c2.88,0.57,4.59,1.16,5.15,1.76
					c0.55,0.6,0.82,1.33,0.82,2.18c0,0.9-0.39,1.66-1.16,2.29c-0.77,0.62-1.89,0.94-3.34,0.94c-1.1,0-3.22-0.24-6.37-0.71
					c-3.15-0.48-5.77-0.71-7.87-0.71c-1.4,0-3.9,0.24-7.5,0.71c-3.6,0.47-6.17,0.71-7.72,0.71c-3.2,0-4.8-1.18-4.8-3.53
					c0-1.15,0.35-1.92,1.05-2.29c0.7-0.37,1.8-0.64,3.3-0.79c3.65-0.4,5.94-1.09,6.87-2.06c0.93-0.97,1.39-3.26,1.39-6.86V713.8
					c0-2.75-0.13-4.13-0.39-4.13c-0.36,0-1.21,1.33-2.54,3.97l-11.62,22.73c-4.85,9.5-9.26,17.94-13.24,25.31
					c-3.98,7.38-6.1,11.34-6.38,11.89c-0.28,0.55-0.59,1-0.94,1.35c-0.35,0.35-0.9,0.52-1.65,0.52c-1.25,0-2.38-0.98-3.38-2.92
					l-28.04-55.5c-1.3-2.6-2.1-3.9-2.4-3.9c-0.25,0-0.38,1.3-0.38,3.9v63.55c0,1.85,0.8,3.39,2.4,4.61c1.6,1.22,3.15,1.84,4.66,1.84
					c4.21,0,6.31,1.19,6.31,3.57c0,2.18-1.83,3.27-5.48,3.27c-0.6,0-2.29-0.26-5.07-0.79c-2.78-0.53-4.74-0.79-5.89-0.79
					c-1.5,0-3.57,0.29-6.2,0.86c-2.63,0.57-4.49,0.86-5.59,0.86c-1.6,0-2.9-0.42-3.9-1.25c-1-0.84-1.5-1.71-1.5-2.62
					c0-0.91,0.59-1.71,1.76-2.39c1.18-0.68,2.54-1.02,4.09-1.02c4.91,0,7.36-2.87,7.36-8.62v-78.42c0-2.05-0.65-3.81-1.95-5.29
					c-1.3-1.47-3.15-2.38-5.56-2.7c-2.4-0.32-3.98-0.84-4.73-1.54c-0.75-0.7-1.13-1.58-1.13-2.63c0-0.75,0.49-1.43,1.47-2.03
					c0.98-0.6,1.97-0.9,2.97-0.9c1.05,0,2.35,0.21,3.91,0.64c1.55,0.43,2.8,0.64,3.76,0.64s2.15-0.21,3.61-0.64
					c1.45-0.42,2.63-0.64,3.53-0.64c1.2,0,2.17,0.48,2.89,1.43c0.73,0.95,1.74,2.85,3.04,5.71l17.06,34.39l14.28,28.61
					c0.6,1.2,1.05,1.8,1.35,1.8c0.35,0,0.8-0.55,1.35-1.65c15.46-29.04,26.29-49.66,32.5-61.88c1.85-3.6,3.44-5.88,4.76-6.83
					c1.33-0.95,2.74-1.43,4.24-1.43c0.7,0,1.87,0.1,3.52,0.3c1.65,0.2,2.9,0.3,3.75,0.3c0.8,0,1.81-0.12,3.04-0.37
					c1.22-0.25,1.99-0.38,2.29-0.38c2.7,0,4.05,1.09,4.05,3.27c0,1.78-1.3,2.66-3.9,2.66c-2.15,0-4.03,0.76-5.63,2.29
					c-1.6,1.53-2.58,2.62-2.93,3.3c-0.35,0.67-0.53,2.29-0.53,4.83V777.88z"/>
				<path class="st2" d="M580.01,715.3c12.26,0,21.9,4.21,28.91,12.62c7.01,8.41,10.51,17.85,10.51,28.33
					c0,7.75-1.9,14.82-5.7,21.24c-3.8,6.41-8.76,10.93-14.88,13.56c-6.12,2.63-12.61,3.94-19.48,3.94
					c-11.18,0-20.48-3.89-27.91-11.67c-7.43-7.78-11.14-17.66-11.14-29.65c0-6.27,1.65-12.48,4.94-18.61
					c3.29-6.13,7.95-10.96,13.96-14.48C565.23,717.06,572.16,715.3,580.01,715.3z M579.7,790c6.6,0,12.1-1.46,16.51-4.37
					c4.41-2.91,7.56-6.5,9.45-10.77s2.85-9.94,2.85-17.03c0-12.25-2.56-21.61-7.69-28.09c-5.13-6.48-12.06-9.71-20.8-9.71
					c-9.02,0-16.08,3.33-21.17,9.98c-5.09,6.65-7.64,14.54-7.64,23.66C551.21,777.89,560.7,790,579.7,790z"/>
				<path class="st2" d="M669.74,716.82c1.19,0,2.15,1.24,2.89,3.73c0.74,2.49,1.1,4.8,1.1,6.94c0,2.14-0.69,3.21-2.08,3.21
					c-0.5,0-0.95-0.16-1.36-0.47c-0.41-0.31-0.97-1.42-1.69-3.32c-0.72-1.9-1.78-3.19-3.19-3.86s-2.96-1.02-4.64-1.02
					c-2.38,0-4.1,0.55-5.16,1.65c-1.06,1.1-1.6,2.89-1.6,5.37v55.69c0,0.84,0.25,1.58,0.76,2.23c0.51,0.65,1.57,1.21,3.18,1.68
					c1.61,0.47,2.59,0.89,2.94,1.24s0.53,0.76,0.53,1.22c0,1.84-0.96,2.77-2.89,2.77c-1.05,0-2.59-0.16-4.61-0.47
					c-2.03-0.32-3.53-0.47-4.51-0.47c-0.91,0-2.24,0.13-3.99,0.39c-1.75,0.26-3.08,0.4-3.99,0.4c-1.08,0-2.01-0.25-2.78-0.74
					c-0.77-0.49-1.15-1.19-1.15-2.08c0-0.42,0.14-0.81,0.42-1.14c0.28-0.34,1.21-0.74,2.79-1.21c1.58-0.47,2.64-1.2,3.18-2.18
					s0.82-2.08,0.82-3.31v-56.26c0-3.4-2.29-5.1-6.86-5.1c-2.97,0-5.08,0.67-6.34,2.01c-0.77,0.78-1.33,1.97-1.68,3.57
					c-0.35,1.61-0.71,2.56-1.08,2.85c-0.37,0.3-0.82,0.45-1.36,0.45c-0.57,0-1.11-0.15-1.62-0.45c-0.52-0.3-0.77-0.67-0.77-1.13
					c0-3.82,0.33-6.81,1-8.96c0.67-2.15,1.63-3.23,2.89-3.23H669.74z"/>
				<path class="st2" d="M719.1,715.3c12.26,0,21.9,4.21,28.91,12.62c7.01,8.41,10.51,17.85,10.51,28.33c0,7.75-1.9,14.82-5.7,21.24
					c-3.8,6.41-8.76,10.93-14.88,13.56c-6.12,2.63-12.61,3.94-19.48,3.94c-11.18,0-20.48-3.89-27.91-11.67
					c-7.43-7.78-11.14-17.66-11.14-29.65c0-6.27,1.65-12.48,4.94-18.61c3.29-6.13,7.95-10.96,13.96-14.48S711.25,715.3,719.1,715.3z
					 M718.78,790c6.6,0,12.1-1.46,16.51-4.37c4.41-2.91,7.56-6.5,9.45-10.77c1.9-4.26,2.85-9.94,2.85-17.03
					c0-12.25-2.56-21.61-7.69-28.09c-5.13-6.48-12.06-9.71-20.8-9.71c-9.02,0-16.08,3.33-21.17,9.98s-7.64,14.54-7.64,23.66
					C690.29,777.89,699.78,790,718.78,790z"/>
				<path class="st2" d="M773.44,725.92c0-2.67-1.81-4.11-5.44-4.32c-2.51-0.14-3.76-0.95-3.76-2.44c0-1.56,1.44-2.34,4.31-2.34
					c1.36,0,2.87,0.12,4.52,0.37c1.64,0.25,3.05,0.37,4.2,0.37c0.77,0,2.9-0.25,6.41-0.74c3.5-0.49,6.2-0.74,8.09-0.74
					c7.21,0,13.07,1.86,17.56,5.58c4.5,3.72,6.75,8.55,6.75,14.48c0,3.79-1.11,6.92-3.34,9.4c-2.23,2.47-6.05,4.76-11.49,6.87
					c-1.02,0.39-1.52,0.79-1.52,1.21c0,0.28,0.21,0.74,0.63,1.37c1.93,2.73,5.57,8.65,10.9,17.74c5.34,9.09,8.18,13.84,8.53,14.24
					c0.35,0.4,1.28,0.86,2.79,1.37c1.51,0.51,2.47,1.02,2.87,1.52c0.4,0.5,0.61,1.07,0.61,1.69c0,0.8-0.52,1.48-1.58,2.06
					c-1.05,0.57-1.9,0.86-2.53,0.86c-1.62,0-3.58-0.62-5.9-1.86c-2.32-1.24-3.84-2.3-4.58-3.18c-1.37-1.75-5.84-8.89-13.42-21.42
					c-3.54-5.84-5.58-9.14-6.11-9.87c-1.89-2.73-3.75-4.48-5.58-5.25c-0.46-0.18-0.75-0.36-0.89-0.56c-0.14-0.2-0.21-0.61-0.21-1.25
					c0-1.53,0.91-2.29,2.73-2.29c0.17,0,0.66,0.06,1.47,0.18s1.59,0.18,2.36,0.18c3.85,0,7.06-1.25,9.65-3.74
					c2.59-2.49,3.88-5.97,3.88-10.43c0-3.16-1.46-6.3-4.36-9.43c-2.91-3.12-6.94-4.69-12.09-4.69c-1.93,0-3.34,0.22-4.23,0.66
					c-0.89,0.44-1.45,0.98-1.68,1.63c-0.23,0.65-0.34,1.5-0.34,2.55v58.97c0,1.16,0.5,2.1,1.51,2.82c1,0.72,2.32,1.08,3.94,1.08
					c1.76,0,2.94,0.23,3.54,0.68c0.6,0.45,0.9,1.11,0.9,1.98c0,0.83-0.38,1.53-1.13,2.08c-0.75,0.55-1.88,0.83-3.38,0.83
					c-1.36,0-3.04-0.4-5.01-1.18c-1.98-0.79-3.54-1.18-4.7-1.18c-0.98,0-2.45,0.38-4.41,1.13c-1.96,0.75-3.5,1.13-4.62,1.13
					c-3.22,0-4.83-1.01-4.83-3.02c0-0.76,0.26-1.33,0.78-1.69c0.52-0.37,1.83-0.55,3.92-0.55c1.25,0,2.28-0.28,3.08-0.84
					c0.8-0.56,1.2-1.25,1.2-2.06V725.92z"/>
				<path class="st2" d="M873.31,789c1.79,0,3.15-0.47,4.08-1.41c0.93-0.94,1.4-2.14,1.4-3.61c0-1.32,0.3-2.38,0.89-3.16
					c0.59-0.78,1.3-1.18,2.1-1.18c0.81,0,1.48,0.37,2.02,1.1s0.82,1.72,0.82,2.94c0,1.23,0.05,2.55,0.16,3.97
					c0.1,1.42,0.16,2.39,0.16,2.92c0,1.44-0.2,2.37-0.6,2.81c-0.4,0.44-1.45,0.66-3.13,0.66h-42.52c-2.98,0-5.02-0.23-6.12-0.68
					c-1.11-0.45-1.66-1.13-1.66-2.03c0-1.42,1-2.13,3-2.13c2.56,0,4.22-0.41,4.99-1.24c0.77-0.82,1.16-2.13,1.16-3.92v-48.1
					c0-5.19-0.09-8.62-0.26-10.3c-0.18-1.68-0.62-2.76-1.31-3.23c-0.7-0.47-2.1-0.71-4.21-0.71c-1.26,0-2.23-0.24-2.92-0.72
					c-0.68-0.48-1.02-1.09-1.02-1.83c0-0.67,0.3-1.26,0.89-1.78c0.6-0.51,1.35-0.77,2.26-0.77h40.48c1.61,0,2.66,0.33,3.15,1
					c0.49,0.67,0.85,1.65,1.08,2.95c0.23,1.3,0.34,3.43,0.34,6.41c0,1.37-0.58,2.05-1.73,2.05c-0.67,0-1.25-0.2-1.76-0.61
					c-0.51-0.41-1.07-1.43-1.68-3.07c-0.62-1.64-1.25-2.69-1.9-3.15c-0.65-0.46-1.39-0.69-2.24-0.69h-14.44
					c-2.42,0-3.95,0.34-4.58,1.03c-0.63,0.69-0.95,1.71-0.95,3.08v11.12c0,2.6,0.35,4.31,1.05,5.14c0.7,0.82,2.12,1.24,4.27,1.24
					h14.02c1.16,0,2.04-0.46,2.63-1.39c0.6-0.93,0.9-1.97,0.9-3.13c0-0.59,0.24-1.09,0.74-1.5c0.49-0.4,1.07-0.6,1.73-0.6
					c0.7,0,1.28,0.23,1.73,0.68c0.45,0.45,0.68,1.1,0.68,1.94c0,0.74-0.12,1.79-0.34,3.17c-0.23,1.38-0.34,2.51-0.34,3.38
					c0,1.33,0.15,2.73,0.45,4.19c0.3,1.47,0.45,2.36,0.45,2.67c0,0.8-0.26,1.47-0.79,1.99c-0.53,0.52-1.14,0.79-1.84,0.79
					c-0.74,0-1.35-0.32-1.84-0.97c-0.49-0.65-0.74-1.53-0.74-2.65c0-1.33-0.35-2.28-1.05-2.84s-1.86-0.84-3.48-0.84h-13.91
					c-1.26,0-2.3,0.25-3.11,0.76c-0.81,0.51-1.21,1.25-1.21,2.23v33.59c0,1.75,0.45,2.93,1.34,3.52c0.89,0.59,2.43,0.89,4.61,0.89
					H873.31z"/>
				<path class="st2" d="M901.75,730.84c0,1.75,0.6,3.53,1.81,5.33c1.2,1.8,4.28,4.47,9.24,8c9.57,6.76,15.93,12.21,19.08,16.35
					c3.15,4.15,4.73,8.57,4.73,13.26c0,6.65-2.58,11.82-7.73,15.51c-5.15,3.69-10.79,5.54-16.93,5.54c-4.35,0-8.8-0.9-13.38-2.71
					c-4.57-1.81-6.86-3.71-6.86-5.7c0-0.49,0.05-1.41,0.16-2.76s0.16-3.04,0.16-5.07c0-0.7-0.06-1.55-0.18-2.55
					c-0.12-1-0.18-1.66-0.18-1.97c0-1.3,0.76-1.95,2.29-1.95c1.7,0,2.65,1.3,2.86,3.89c0.42,4.28,1.93,7.61,4.52,9.99
					c2.59,2.38,6.19,3.57,10.78,3.57c4.63,0,8.45-1.3,11.49-3.91c3.03-2.61,4.55-6.01,4.55-10.21c0-2.52-1.02-5.2-3.07-8.03
					c-2.05-2.83-7.4-7.33-16.07-13.49c-3.57-2.52-6.39-4.67-8.44-6.44c-2.05-1.77-3.77-3.86-5.15-6.28
					c-1.39-2.42-2.08-5.17-2.08-8.25c0-5.01,2.27-9.16,6.81-12.46c4.54-3.29,9.77-4.94,15.69-4.94c3.37,0,6.97,0.83,10.8,2.5
					c3.84,1.66,5.76,3.62,5.76,5.86c0,0.32-0.02,0.82-0.05,1.5c-0.03,0.68-0.05,1.69-0.05,3.02c0,0.35,0.07,1.04,0.21,2.05
					c0,2.31-0.8,3.47-2.39,3.47c-0.57,0-1.13-0.27-1.68-0.81c-0.55-0.54-0.82-1.12-0.82-1.75c0-3.42-1.16-6.05-3.48-7.88
					c-2.32-1.83-5.16-2.75-8.51-2.75c-3.81,0-7.07,1.05-9.79,3.15C903.11,726.02,901.75,728.33,901.75,730.84z"/>
			</g>
		</g>
		<g>
			<g>
				<path class="st0" d="M156.83,858.82h-17.76v16.48h19.8v4.95h-25.7v-45.7h24.68v4.95h-18.78v14.44h17.76V858.82z"/>
				<path class="st0" d="M182.5,880.25l-4.08-7.07c-1.66-2.71-2.71-4.46-3.7-6.31h-0.09c-0.9,1.85-1.8,3.56-3.47,6.36l-3.84,7.03
					h-4.75l9.78-16.19l-9.4-15.81h4.79l4.22,7.5c1.19,2.09,2.09,3.7,2.94,5.41h0.14c0.9-1.9,1.71-3.37,2.9-5.41l4.37-7.5h4.75
					l-9.73,15.57l9.97,16.43H182.5z"/>
				<path class="st0" d="M213.07,879.2c-1.52,0.76-4.56,1.52-8.45,1.52c-9.02,0-15.81-5.7-15.81-16.19
					c0-10.02,6.79-16.81,16.71-16.81c3.99,0,6.5,0.86,7.6,1.42l-1,3.37c-1.57-0.76-3.8-1.33-6.46-1.33c-7.5,0-12.49,4.8-12.49,13.2
					c0,7.83,4.51,12.87,12.29,12.87c2.52,0,5.08-0.52,6.74-1.33L213.07,879.2z"/>
				<path class="st0" d="M234.8,865.25h-12.44v11.54h13.86v3.47h-17.99v-32h17.28v3.47h-13.15v10.11h12.44V865.25z"/>
				<path class="st0" d="M241.58,848.25h4.13v28.53h13.67v3.47h-17.8V848.25z"/>
				<path class="st0" d="M280.55,865.25h-12.44v11.54h13.86v3.47h-17.99v-32h17.28v3.47h-13.15v10.11h12.44V865.25z M274.14,841.13
					l4.98,5.41h-3.51l-3.04-3.28h-0.1l-2.99,3.28h-3.42l4.89-5.41H274.14z"/>
				<path class="st0" d="M287.33,880.25v-32h4.51l10.25,16.19c2.37,3.75,4.23,7.12,5.74,10.4l0.09-0.05
					c-0.38-4.27-0.47-8.17-0.47-13.15v-13.39h3.89v32h-4.18l-10.16-16.24c-2.23-3.56-4.37-7.22-5.98-10.68l-0.14,0.05
					c0.24,4.04,0.33,7.88,0.33,13.2v13.67H287.33z"/>
				<path class="st0" d="M340.92,879.2c-1.52,0.76-4.56,1.52-8.45,1.52c-9.02,0-15.81-5.7-15.81-16.19
					c0-10.02,6.79-16.81,16.71-16.81c3.99,0,6.5,0.86,7.6,1.42l-1,3.37c-1.57-0.76-3.8-1.33-6.46-1.33c-7.5,0-12.49,4.8-12.49,13.2
					c0,7.83,4.51,12.87,12.29,12.87c2.52,0,5.08-0.52,6.74-1.33L340.92,879.2z"/>
				<path class="st0" d="M350.22,848.25v32h-4.13v-32H350.22z"/>
				<path class="st0" d="M362.61,870.18l-3.32,10.06h-4.27l10.87-32h4.99l10.92,32h-4.42l-3.42-10.06H362.61z M373.1,866.95
					l-3.13-9.21c-0.71-2.09-1.19-3.99-1.66-5.84h-0.1c-0.47,1.9-1,3.84-1.61,5.79l-3.13,9.26H373.1z"/>
				<path class="st0" d="M417.42,865.25h-12.44v11.54h13.86v3.47h-17.99v-32h17.28v3.47h-13.15v10.11h12.44V865.25z"/>
				<path class="st0" d="M451.16,866.2c-0.24-4.46-0.52-9.83-0.47-13.82h-0.14c-1.09,3.75-2.42,7.74-4.04,12.15l-5.65,15.52h-3.13
					l-5.17-15.24c-1.52-4.51-2.8-8.64-3.7-12.44h-0.09c-0.1,3.99-0.33,9.35-0.62,14.15l-0.85,13.72h-3.94l2.23-32h5.27l5.46,15.48
					c1.33,3.94,2.42,7.45,3.23,10.77h0.14c0.81-3.23,1.95-6.74,3.37-10.77l5.7-15.48h5.27l1.99,32h-4.04L451.16,866.2z"/>
				<path class="st0" d="M510.21,878.76c-2.17,1.09-6.51,2.17-12.07,2.17c-12.88,0-22.58-8.14-22.58-23.12c0-14.31,9.7-24,23.87-24
					c5.7,0,9.29,1.22,10.85,2.03l-1.42,4.81c-2.24-1.09-5.42-1.9-9.22-1.9c-10.71,0-17.83,6.85-17.83,18.85
					c0,11.19,6.44,18.37,17.56,18.37c3.59,0,7.26-0.75,9.63-1.9L510.21,878.76z"/>
				<path class="st0" d="M521.23,870.18l-3.32,10.06h-4.27l10.87-32h4.98l10.92,32h-4.42l-3.42-10.06H521.23z M531.72,866.95
					l-3.13-9.21c-0.71-2.09-1.19-3.99-1.66-5.84h-0.09c-0.47,1.9-1,3.84-1.61,5.79l-3.13,9.26H531.72z"/>
				<path class="st0" d="M545.1,848.68c2.52-0.38,5.51-0.66,8.78-0.66c5.93,0,10.16,1.38,12.96,3.99c2.85,2.61,4.51,6.31,4.51,11.49
					c0,5.22-1.61,9.49-4.61,12.44c-2.99,2.99-7.93,4.6-14.15,4.6c-2.94,0-5.41-0.14-7.5-0.38V848.68z M549.23,876.97
					c1.04,0.19,2.56,0.24,4.18,0.24c8.83,0,13.63-4.94,13.63-13.58c0.05-7.55-4.23-12.34-12.96-12.34c-2.14,0-3.75,0.19-4.84,0.43
					V876.97z"/>
				<path class="st0" d="M581.22,870.18l-3.32,10.06h-4.27l10.87-32h4.98l10.92,32h-4.42l-3.42-10.06H581.22z M591.71,866.95
					l-3.13-9.21c-0.71-2.09-1.19-3.99-1.66-5.84h-0.09c-0.47,1.9-1,3.84-1.61,5.79l-3.13,9.26H591.71z"/>
				<path class="st0" d="M621.01,835.16c3.59-0.54,7.87-0.95,12.54-0.95c8.48,0,14.51,1.97,18.51,5.7
					c4.07,3.73,6.44,9.02,6.44,16.41c0,7.46-2.31,13.56-6.58,17.76c-4.27,4.27-11.32,6.58-20.21,6.58c-4.2,0-7.73-0.2-10.71-0.54
					V835.16z M626.91,875.57c1.49,0.27,3.66,0.34,5.97,0.34c12.61,0,19.46-7.05,19.46-19.39c0.07-10.78-6.03-17.63-18.51-17.63
					c-3.05,0-5.36,0.27-6.92,0.61V875.57z"/>
				<path class="st0" d="M681.18,865.25h-12.44v11.54h13.86v3.47h-17.99v-32h17.28v3.47h-13.15v10.11h12.44V865.25z"/>
				<path class="st0" d="M694.8,851.76h-9.73v-3.51h23.69v3.51h-9.78v28.48h-4.18V851.76z"/>
				<path class="st0" d="M713.93,870.18l-3.32,10.06h-4.27l10.87-32h4.98l10.92,32h-4.41l-3.42-10.06H713.93z M724.42,866.95
					l-3.13-9.21c-0.71-2.09-1.19-3.99-1.66-5.84h-0.09c-0.47,1.9-1,3.84-1.61,5.79l-3.13,9.26H724.42z"/>
				<path class="st0" d="M737.8,848.25h4.13v28.53h13.67v3.47h-17.8V848.25z"/>
				<path class="st0" d="M764.33,848.25v13.39h15.48v-13.39h4.18v32h-4.18v-15h-15.48v15h-4.13v-32H764.33z"/>
				<path class="st0" d="M807.71,865.25h-12.44v11.54h13.86v3.47h-17.99v-32h17.28v3.47h-13.15v10.11h12.44V865.25z"/>
			</g>
		</g>
	</g>
</g>
</svg>
